<?xml version="1.0" encoding="utf-8"?>
<!-- Generator: Adobe Illustrator 24.0.1, SVG Export Plug-In . SVG Version: 6.00 Build 0)  -->
<svg version="1.1" id="Layer_1" xmlns="http://www.w3.org/2000/svg" xmlns:xlink="http://www.w3.org/1999/xlink" x="0px" y="0px"
	 viewBox="0 0 600 716" style="enable-background:new 0 0 600 716;" xml:space="preserve">
<style type="text/css">
	.st0{fill:#FDF0ED;stroke:#231F20;stroke-width:1.1001;stroke-miterlimit:10;}
	.st1{fill:#FFFFFF;}
	.st2{clip-path:url(#SVGID_2_);}
	.st3{fill:#FAD91D;}
	.st4{fill:none;stroke:#231F20;stroke-miterlimit:10;}
	.st5{fill:none;stroke:#231F20;stroke-width:3;stroke-linecap:round;stroke-linejoin:round;stroke-miterlimit:10;}
	.st6{fill:#231F20;}
	.st7{fill:#3B2713;stroke:#231F20;stroke-width:2;stroke-miterlimit:10;}
	.st8{fill:#FDF0ED;stroke:#231F20;stroke-width:1.3025;stroke-miterlimit:10;}
	.st9{fill:#3B2713;}
	.st10{fill:#FDF0ED;stroke:#231F20;stroke-width:1.516;stroke-miterlimit:10;}
	.st11{fill:#F9CED9;}
	.st12{fill:none;stroke:#E80E8A;stroke-width:4;stroke-miterlimit:10;}
	.st13{fill:none;stroke:#EF5567;stroke-width:3.0897;stroke-linecap:round;stroke-miterlimit:10;}
	.st14{fill:none;stroke:#231F20;stroke-width:5;stroke-linecap:round;stroke-miterlimit:10;}
</style>
<g id="avatar">
	<path class="st0" d="M233.3,273.1l9.5,121.3c0,0,107.3,91.3,145.2-19.8c24.2-70.9-6.9-80.4-6.9-80.4L233.3,273.1z"/>
	<path class="st1" d="M597.2,709.9v-22.3c0,0-10.1-143.7-63.3-232.5c-53.3-88.8-148.2-83.4-148.2-83.4
		c-9.9,25.9-48.9,53.3-48.9,53.3l-65.4-34l-95.1-11.9C58.5,400.1,2.6,709.9,2.6,709.9"/>
	<g>
		<defs>
			<path id="SVGID_1_" d="M178.3,378.4C60.6,399.2,2.6,708.8,2.6,708.8v5.5h594.7v-27.8c0,0-10-140.8-63.2-229.6
				c-53.3-88.8-148.2-86.2-148.2-86.2c-5.2,23.9-48.8,54.9-48.8,54.9l-65.2-34.1L178.3,378.4z"/>
		</defs>
		<clipPath id="SVGID_2_">
			<use xlink:href="#SVGID_1_"  style="overflow:visible;"/>
		</clipPath>
		<g class="st2">
			<g>
				<polygon class="st3" points="139,461.3 119,419.1 139,377 159,419.1 				"/>
				<polygon class="st3" points="139,545.6 119,503.4 139,461.3 159,503.4 				"/>
				<polygon class="st3" points="139,629.9 119,587.8 139,545.6 159,587.8 				"/>
				<polygon class="st3" points="139,714.3 119,672.1 139,629.9 159,672.1 				"/>
				<polygon class="st3" points="99,461.3 79,419.1 99,377 119,419.1 				"/>
				<polygon class="st3" points="99,545.6 79,503.4 99,461.3 119,503.4 				"/>
				<polygon class="st3" points="99,629.9 79,587.8 99,545.6 119,587.8 				"/>
				<polygon class="st3" points="99,714.3 79,672.1 99,629.9 119,672.1 				"/>
				<polygon class="st3" points="59,461.3 39,419.1 59,377 79,419.1 				"/>
				<polygon class="st3" points="59,545.6 39,503.4 59,461.3 79,503.4 				"/>
				<polygon class="st3" points="59,629.9 39,587.8 59,545.6 79,587.8 				"/>
				<polygon class="st3" points="59,714.3 39,672.1 59,629.9 79,672.1 				"/>
				<polygon class="st3" points="19,461.3 -1,419.1 19,377 39,419.1 				"/>
				<polygon class="st3" points="19,545.6 -1,503.4 19,461.3 39,503.4 				"/>
				<polygon class="st3" points="19,629.9 -1,587.8 19,545.6 39,587.8 				"/>
				<polygon class="st3" points="19,714.3 -1,672.1 19,629.9 39,672.1 				"/>
			</g>
			<g>
				<polygon class="st3" points="299,461.3 279,419.1 299,377 319,419.1 				"/>
				<polygon class="st3" points="299,545.6 279,503.4 299,461.3 319,503.4 				"/>
				<polygon class="st3" points="299,629.9 279,587.8 299,545.6 319,587.8 				"/>
				<polygon class="st3" points="299,714.3 279,672.1 299,629.9 319,672.1 				"/>
				<polygon class="st3" points="259,461.3 239,419.1 259,377 279,419.1 				"/>
				<polygon class="st3" points="259,545.6 239,503.4 259,461.3 279,503.4 				"/>
				<polygon class="st3" points="259,629.9 239,587.8 259,545.6 279,587.8 				"/>
				<polygon class="st3" points="259,714.3 239,672.1 259,629.9 279,672.1 				"/>
				<polygon class="st3" points="219,461.3 199,419.1 219,377 239,419.1 				"/>
				<polygon class="st3" points="219,545.6 199,503.4 219,461.3 239,503.4 				"/>
				<polygon class="st3" points="219,629.9 199,587.8 219,545.6 239,587.8 				"/>
				<polygon class="st3" points="219,714.3 199,672.1 219,629.9 239,672.1 				"/>
				<polygon class="st3" points="179,461.3 159,419.1 179,377 199,419.1 				"/>
				<polygon class="st3" points="179,545.6 159,503.4 179,461.3 199,503.4 				"/>
				<polygon class="st3" points="179,629.9 159,587.8 179,545.6 199,587.8 				"/>
				<polygon class="st3" points="179,714.3 159,672.1 179,629.9 199,672.1 				"/>
			</g>
			<g>
				<polygon class="st3" points="459,461.3 439,419.1 459,377 479,419.1 				"/>
				<polygon class="st3" points="459,545.6 439,503.4 459,461.3 479,503.4 				"/>
				<polygon class="st3" points="459,629.9 439,587.8 459,545.6 479,587.8 				"/>
				<polygon class="st3" points="459,714.3 439,672.1 459,629.9 479,672.1 				"/>
				<polygon class="st3" points="419,461.3 399,419.1 419,377 439,419.1 				"/>
				<polygon class="st3" points="419,545.6 399,503.4 419,461.3 439,503.4 				"/>
				<polygon class="st3" points="419,629.9 399,587.8 419,545.6 439,587.8 				"/>
				<polygon class="st3" points="419,714.3 399,672.1 419,629.9 439,672.1 				"/>
				<polygon class="st3" points="379,461.3 359,419.1 379,377 399,419.1 				"/>
				<polygon class="st3" points="379,545.6 359,503.4 379,461.3 399,503.4 				"/>
				<polygon class="st3" points="379,629.9 359,587.8 379,545.6 399,587.8 				"/>
				<polygon class="st3" points="379,714.3 359,672.1 379,629.9 399,672.1 				"/>
				<polygon class="st3" points="339,461.3 319,419.1 339,377 359,419.1 				"/>
				<polygon class="st3" points="339,545.6 319,503.4 339,461.3 359,503.4 				"/>
				<polygon class="st3" points="339,629.9 319,587.8 339,545.6 359,587.8 				"/>
				<polygon class="st3" points="339,714.3 319,672.1 339,629.9 359,672.1 				"/>
			</g>
			<g>
				<polygon class="st3" points="619,461.3 599,419.1 619,377 639,419.1 				"/>
				<polygon class="st3" points="619,545.6 599,503.4 619,461.3 639,503.4 				"/>
				<polygon class="st3" points="619,629.9 599,587.8 619,545.6 639,587.8 				"/>
				<polygon class="st3" points="619,714.3 599,672.1 619,629.9 639,672.1 				"/>
				<polygon class="st3" points="579,461.3 559,419.1 579,377 599,419.1 				"/>
				<polygon class="st3" points="579,545.6 559,503.4 579,461.3 599,503.4 				"/>
				<polygon class="st3" points="579,629.9 559,587.8 579,545.6 599,587.8 				"/>
				<polygon class="st3" points="579,714.3 559,672.1 579,629.9 599,672.1 				"/>
				<polygon class="st3" points="539,461.3 519,419.1 539,377 559,419.1 				"/>
				<polygon class="st3" points="539,545.6 519,503.4 539,461.3 559,503.4 				"/>
				<polygon class="st3" points="539,629.9 519,587.8 539,545.6 559,587.8 				"/>
				<polygon class="st3" points="539,714.3 519,672.1 539,629.9 559,672.1 				"/>
				<polygon class="st3" points="499,461.3 479,419.1 499,377 519,419.1 				"/>
				<polygon class="st3" points="499,545.6 479,503.4 499,461.3 519,503.4 				"/>
				<polygon class="st3" points="499,629.9 479,587.8 499,545.6 519,587.8 				"/>
				<polygon class="st3" points="499,714.3 479,672.1 499,629.9 519,672.1 				"/>
			</g>
		</g>
	</g>
	<g>
		<g>
			<path class="st6" d="M599.8,714.4c0-9.2,0.3-18.4-0.1-27.5c-0.3-6.2-1.1-12.4-1.8-18.5c-3.7-33.3-9.5-66.4-17.5-98.9
				c-10.2-41.2-23.8-83.1-46.6-119.1c-20.8-32.8-51.9-57.5-88.5-70.1c-12.3-4.2-25-7.1-37.9-8.7c-6.7-0.8-13.5-1.4-20.2-1.1
				c-0.3,0-0.6,0-0.9,0c-1,0.1-2.4,0.5-2.8,1.5c-5.6,14.2-17.1,26-28.2,36.2c-6.4,5.8-13.1,11.4-20.2,16.4c1.3-0.2,2.6-0.4,3.9-0.6
				c-16.4-8.5-32.8-17-49.2-25.5c-4-2.1-8-4.2-12-6.2c-1.7-0.9-3.4-2.1-5.2-2.4c-5.2-1-10.7-1.3-16-2c-22.3-2.8-44.7-5.6-67-8.4
				c-5.5-0.7-10.8-2-16.3-0.8c-8.9,2-17.4,5.5-25.3,10.1c-17.7,10.4-32,25.9-44.1,42.3c-14.2,19.3-25.8,40.5-36,62.2
				c-10.9,23.2-20.1,47.2-28.4,71.4c-7.7,22.6-14.5,45.4-20.7,68.4c-4.7,17.7-9.1,35.5-13,53.4c-2,9-3.9,18-5.5,27
				c-0.1,0.4-0.1,0.8-0.2,1.2c-0.3,1.8,4.6,1.1,4.8-0.5c1.1-6.1,2.4-12.2,3.6-18.3c3.3-15.8,7-31.4,10.9-47.1
				c5.5-21.8,11.6-43.4,18.4-64.8c7.6-23.9,16-47.5,25.8-70.6c9.6-22.7,20.4-45,33.6-65.8c11.4-18,24.6-35.4,41.3-48.8
				c7.1-5.7,14.8-10.6,23.2-14.1c4-1.7,8.1-3,12.3-3.9c0.5-0.1,1-0.2,1.5-0.3c0.8-0.2,1.3,0.1,0-0.1c0.1,0,0.3,0,0.5,0.1
				c0.8,0.2,1.7,0.2,2.5,0.3c20.3,2.5,40.5,5.1,60.8,7.6c9,1.1,18,2.2,27.1,3.4c1.1,0.1,2.1,0.3,3.2,0.4c1.6,0.2,0.6,0.4,0.2-0.1
				c1,1.2,3.8,2,5.1,2.7c18.6,9.7,37.2,19.3,55.7,29c1.5,0.8,3,1.6,4.6,2.4c1.2,0.6,2.9,0,3.9-0.6c7.5-5.3,14.6-11.2,21.3-17.4
				c11.1-10.3,22.5-22.1,28.1-36.5c-0.9,0.5-1.9,1-2.8,1.5c0.3,0,0.6-0.1,0.9,0c-0.9-0.1,0.4,0,0.7,0c0.5,0,1.1,0,1.6,0
				c3.4,0,6.8,0.2,10.1,0.5c11.6,0.9,23,3.1,34.2,6.3c35.4,10.1,66.6,31.5,88.6,61c12.9,17.4,22.7,37.1,30.8,57.1
				c8.1,19.8,14.6,40.1,20.1,60.8c9,33.9,15.4,68.5,19.7,103.2c1,8.1,1.9,16.3,2.6,24.4c0.7,8,0.2,16.1,0.2,24.2c0,1.7,0,3.4,0,5.1
				C594.9,717,599.8,716.2,599.8,714.4L599.8,714.4z"/>
		</g>
	</g>
	<path class="st7" d="M182.8,490c3.7,14.8,8,29.4,13.1,44.1c11.3,33,31.8,58.7,62.2,76.3c27.5,15.9,66.8-20.2,81.2-42.5
		c-1.8,2.7-22.5,9.9-26.1,11.5c-42.3,18.4-57-24.3-59.1-57.8c-1.2-19.5-3.5-37.4-6.9-55.9c-4.2-22.3-1.2-41.6,2.3-63.9
		c2-12.5,7.6-24.2,9.8-36.7c2.3-12.8,2.6-25.8,2-38.8c-0.5-10.5-1.4-21-2.7-31.4c-1-7.9,1.3-16.2-3.1-23.4c-2.1-3.4-4-6.9-5.7-10.5
		c-6.1-13.3-10.2-27.5-13.8-41.6c-3.4-13.2-5.8-54.1-2.1-68.3c0,0,21.6-17.4,54-42.2c0,0,65,36.5,115.6,14.2
		c0,0,14.1,83.6,4.9,115.4s-38.5,77.3-38.5,77.3c-11.2,7.2,1.7,49.9,5.1,58.9c7.7,20.6,24.3,35.3,38.9,50.9
		c12.4,13.3,20.8,28.7,27.2,45.6c10.7,28.5,29.4,57.4,27.2,89c-2.3,32.4-44.6,38.3-66.7,19c13.3,11.6,28.4,29,48,25.3
		c40.3-7.6,56.4-69.6,53.3-104.8c-2.4-27.2-7.3-55.1-19.1-79.9c-10.8-22.6-33-37.2-40.2-61.5c-6.4-21.5-5.8-42.6-4.8-64.8
		c0.9-19.2,8.1-38.9,6.5-58.1c-1.3-15.7,1.3-30.1,0.6-45.9c-0.7-17.3-1-34.8-5-51.7c-3.5-14.9-11.7-26.5-17.3-40.2
		c-12.3-30.6-27.8-56.9-55.3-76.3c-52.5-36.9-110-0.9-110-0.9c-15.8-3.2-43.4,12.3-54.6,22.1c-18,15.8-27.4,37.2-31,60.6
		c-3.4,22.9-7.9,45-10.2,68.3c-1.6,16.2,1.7,36.5,2.3,53.4c0.5,13.3-0.3,27.5-0.9,41.1C160.6,341.7,164,416,182.8,490z"/>
	<path class="st8" d="M417,168.5c6.4-4.4,18.8,7.8,9.8,36c-9,28.2-19.5,27.5-19.9,29.7"/>
	<path class="st0" d="M422.8,191.3c0,20.6-3.1,52.4-18.8,84.5c-6.3,12.9-9.6,16.1-18.2,27.7c-22.7,30.4-33.6,32.6-56.9,28.2
		c-37.4-7-66.8-22.5-82-52.7c-10.5-20.9-20.5-61.8-20.5-88.9c0-77.7,42.6-140.7,99.9-140.7C383.6,49.2,422.8,113.5,422.8,191.3z"/>
	<path class="st6" d="M290.3,176c0,4.6-2.3,8.4-5.1,8.4c-2.8,0-5.1-3.7-5.1-8.4c0-4.6,2.3-8.4,5.1-8.4
		C288,167.6,290.3,171.4,290.3,176z"/>
	<path class="st6" d="M394,172.8c0,4.6-2.3,8.4-5.1,8.4c-2.8,0-5.1-3.7-5.1-8.4s2.3-8.4,5.1-8.4C391.7,164.4,394,168.2,394,172.8z"
		/>
	<g>
		<path class="st6" d="M258.1,145.5c2.7-0.9,5.3-2.1,7.7-3.6c2.5-1.4,4.9-3,7.4-4.4c2.6-1.4,5.3-2.6,8.3-3.4
			c2.9-0.7,5.8-1.2,8.7-1.5c3-0.3,5.9-0.5,9-0.4c3,0.1,6.1,0.7,9,1.8c2.9,1.1,5.6,2.6,7.9,4.6c2.3,2,4.3,4.3,5.7,7l-0.4,0.3
			c-2.4-1.7-4.8-3.1-7.2-4.4c-2.4-1.2-5-2.1-7.6-2.8c-2.6-0.7-5.2-1.2-7.9-1.6c-2.7-0.4-5.5-0.6-8.2-0.5c-2.8,0.1-5.6,0.4-8.3,0.8
			c-2.7,0.4-5.3,1.3-7.9,2.4c-5.2,2.1-10.3,5.2-16.1,6.2L258.1,145.5z"/>
	</g>
	<g>
		<path class="st6" d="M404.3,141.1c-3-4-7.4-6.9-11.9-8.6c-1.1-0.5-2.3-0.8-3.5-1.2c-1.2-0.3-2.4-0.5-3.6-0.8
			c-0.6-0.2-1.2-0.2-1.8-0.3l-1.8-0.2c-0.6,0-1.2-0.2-1.8-0.1l-1.8,0l-1.8,0l-0.9,0l-0.9,0.1l-3.6,0.5l-0.9,0.1
			c-0.3,0-0.6,0.1-0.9,0.2c-0.6,0.1-1.2,0.2-1.8,0.3c-1.2,0.2-2.4,0.3-3.6,0.5c-2.4,0.5-4.9,0.8-7.4,1.2c-2.5,0.5-5,0.9-7.6,1.1
			l-0.2-0.5c2.2-1.5,4.5-2.8,6.8-3.9c2.4-1.1,4.9-1.9,7.4-2.7c1.3-0.3,2.6-0.5,3.9-0.8c1.3-0.2,2.6-0.5,3.9-0.4l4,0l1,0l1,0.1l2,0.2
			l2,0.2c0.7,0,1.3,0.2,2,0.3l2,0.4c0.7,0.1,1.3,0.2,1.9,0.5c1.3,0.4,2.5,0.8,3.8,1.2c1.2,0.6,2.4,1,3.6,1.7
			c2.3,1.3,4.5,2.7,6.4,4.6c1.9,1.8,3.6,3.8,4.9,6.1L404.3,141.1z"/>
	</g>
	<g>
		<path class="st6" d="M381.1,258.2c-5.6,3.7-11.8,6.4-18.3,8.2c-3.2,0.9-6.5,1.6-9.8,2.2c-3.3,0.6-6.7,0.9-10,1.1
			c-3.4,0.2-6.7,0.2-10.1-0.1c-3.3-0.2-6.7-0.6-10-1c-3.3-0.5-6.6-1.1-9.9-1.9c-1.6-0.4-3.2-0.9-4.8-1.4c-1.6-0.5-3.2-1.1-4.7-1.8
			c3.2,1,6.5,1.6,9.7,2.1c3.3,0.5,6.6,0.9,9.9,1.2c3.3,0.3,6.6,0.5,9.9,0.8c3.3,0.2,6.6,0.2,9.9,0.1c6.6-0.3,13.1-1.2,19.6-2.7
			C368.8,263.3,375.1,261.2,381.1,258.2z"/>
	</g>
	<path class="st9" d="M215.7,189.3c0,0,11.4-2.5,27.1-19.1c14.9-15.7,31.9-51.3,50.3-69.4c0,0,8.6,2.2,35.7,12.5
		c24.4,9.3,69.6,36.8,102.2,29.5c0,0-19.5-88.3-65.5-104.4C259.6,1.4,213.5,119.7,215.7,189.3z"/>
	<g>
		<path class="st6" d="M328.8,155.2c1,1.8,1.5,3.8,1.9,5.7c0.4,2,0.8,3.9,1.1,5.9c0.6,4,1,8,1.3,12c0.3,4,0.5,8,0.5,12
			c0,2,0,4-0.2,6.1l-0.8,5.9c-1,7.9-2.4,15.8-2.3,23.5c0.1,1.9,0.3,3.8,0.9,5.4c0.3,0.8,0.7,1.4,1.4,2.3c0.6,0.8,1.2,1.5,1.8,2.2
			c0.6,0.7,1.3,1.3,2,1.6c0.7,0.3,1.5,0.3,2.5,0.1c1-0.2,2.1-0.3,3.1-0.2c1,0.1,2,0.3,3,0.7c-1-0.1-2-0.1-3,0
			c-1,0.1-1.9,0.4-2.8,0.7c-0.5,0.2-1,0.3-1.6,0.4c-0.6,0.1-1.2,0.1-1.8-0.1c-1.2-0.4-2.1-1.1-2.9-1.7c-0.8-0.7-1.5-1.5-2.2-2.2
			l-0.5-0.6l-0.3-0.3l-0.3-0.4c-0.4-0.5-0.6-1-0.9-1.5c-0.9-2.1-1.2-4.2-1.3-6.3c-0.3-4.1,0.1-8.2,0.5-12.2c0.4-4,1-8,1.6-11.9
			l0.8-5.9c0.3-1.8,0.3-3.8,0.4-5.8c0.1-4,0.1-7.9,0-11.9c-0.1-4-0.2-8-0.4-11.9c-0.1-2-0.3-4-0.5-5.9c-0.1-1-0.2-2-0.4-2.9
			C329.4,157.1,329.2,156.1,328.8,155.2z"/>
	</g>
	<path class="st10" d="M229.8,184.6c-8.2-4.6-26.7,7.9-15.1,37.6c11.6,29.7,27.6,29.2,28.1,31.5"/>
	<path class="st11" d="M299.8,229c-1.1,7.2-10.9,11.7-21.7,10c-10.9-1.7-18.7-9-17.6-16.2c1.1-7.2,10.9-11.7,21.7-10
		C293.1,214.5,301,221.7,299.8,229z"/>
	<path class="st11" d="M411.8,216.2c1,7.3-6.2,14.2-16,15.5c-9.8,1.3-18.6-3.5-19.6-10.7c-1-7.3,6.2-14.2,16-15.5
		C402.1,204.2,410.8,209,411.8,216.2z"/>
	<path class="st6" d="M231.2,205.5c-0.8-1-2.2-1.3-3.8-0.4c-2.2,1.4-2.9,4.7-2.7,7.2c0.2,1.7,1,3.6,2.1,4.8c4.7,5.5,6.1,8.8,6.1,8.8
		c-1-2-1.8-4-2.5-6.1c-0.6-1.8-2.8-6.6-0.2-7.9C232.4,210.8,232.8,207.3,231.2,205.5z"/>
	<line class="st13" x1="220" y1="98.7" x2="260.4" y2="127.9"/>
	<line class="st13" x1="213.1" y1="105.7" x2="253.5" y2="134.8"/>
	<g>
		<path class="st6" d="M310.4,273.2c5.8,1.8,11.1,4.9,16.4,7.5c5.3,2.6,10.9,4.7,16.5,4.5c1.4,0,2.8-0.2,4.2-0.5
			c1.4-0.3,2.7-0.7,4-1.3c2.6-1.1,5-2.7,7.3-4.6c2.2-1.9,4.3-4,6.4-6.2c2.1-2.1,4.2-4.4,6.9-5.9c-2.3,2-4,4.4-5.8,6.8
			c-1.8,2.4-3.7,4.8-6,6.9c-2.2,2.2-4.8,4.1-7.6,5.4c-2.9,1.4-6.1,2.1-9.3,2.2c-3.2,0.2-6.4-0.5-9.3-1.4c-3-1-5.7-2.4-8.4-3.9
			C320.4,279.8,315.6,276.2,310.4,273.2z"/>
	</g>
	<path class="st14" d="M181.5,561.2c0,0-33.4,43.5-19.5,140"/>
	<path class="st14" d="M537.4,698.1c0,0,24.3-49.2-8-141.1"/>
</g>
</svg>
