<?xml version="1.0" encoding="utf-8"?>
<!-- Generator: Adobe Illustrator 24.0.1, SVG Export Plug-In . SVG Version: 6.00 Build 0)  -->
<svg version="1.1" id="Layer_1" xmlns="http://www.w3.org/2000/svg" xmlns:xlink="http://www.w3.org/1999/xlink" x="0px" y="0px"
	 viewBox="0 0 1440 734" style="enable-background:new 0 0 1440 734;" xml:space="preserve">
<style type="text/css">
	.st0{fill:#B2F7EF;}
	.st1{fill:#E7E1F8;}
	.st2{fill:#7BDFF2;}
	.st3{fill:#FFFFFF;}
	.st4{fill:#F2B5D4;}
	.st5{fill:#EFF7F6;}
	.st6{fill:#F7D6E0;}
	.st7{fill:#FDF0ED;stroke:#231F20;stroke-width:1.1001;stroke-miterlimit:10;}
	.st8{clip-path:url(#SVGID_2_);}
	.st9{fill:#FAD91D;}
	.st10{fill:#231F20;}
	.st11{fill:#3B2713;stroke:#231F20;stroke-width:2;stroke-miterlimit:10;}
	.st12{fill:#FDF0ED;stroke:#231F20;stroke-width:1.3025;stroke-miterlimit:10;}
	.st13{fill:#3B2713;}
	.st14{fill:#FDF0ED;stroke:#231F20;stroke-width:1.516;stroke-miterlimit:10;}
	.st15{fill:#F9CED9;}
	.st16{fill:none;stroke:#EF5567;stroke-width:3.0897;stroke-linecap:round;stroke-miterlimit:10;}
	.st17{fill:none;stroke:#231F20;stroke-width:5;stroke-linecap:round;stroke-miterlimit:10;}
</style>
<ellipse transform="matrix(0.9902 -0.1394 0.1394 0.9902 -24.9683 196.6187)" class="st0" cx="1391" cy="276.5" rx="26.4" ry="26.4"/>
<ellipse transform="matrix(0.7071 -0.7071 0.7071 0.7071 59.0685 1060.7659)" class="st0" cx="1310" cy="459.1" rx="31.4" ry="31.4"/>
<circle class="st0" cx="1379.4" cy="466.9" r="15.6"/>
<path class="st0" d="M1382,371.5c-5.4,1.7-8.4,7.4-6.7,12.8c1.7,5.4,7.4,8.4,12.8,6.7c5.4-1.7,8.4-7.4,6.7-12.8
	C1393.1,372.8,1387.4,369.8,1382,371.5z"/>
<ellipse class="st0" cx="1072.6" cy="614.1" rx="39.4" ry="39.4"/>
<ellipse class="st0" cx="230.5" cy="454.5" rx="40" ry="40"/>
<ellipse class="st0" cx="982.5" cy="565" rx="16.4" ry="16.4"/>
<ellipse class="st1" cx="1274.5" cy="247" rx="43" ry="43"/>
<ellipse class="st1" cx="210.9" cy="214.9" rx="10.3" ry="10.3"/>
<ellipse transform="matrix(0.1301 -0.9915 0.9915 0.1301 491.1112 1226.4889)" class="st1" cx="944.5" cy="333.4" rx="20.6" ry="20.6"/>
<ellipse class="st1" cx="862.3" cy="377.5" rx="14.7" ry="14.7"/>
<ellipse transform="matrix(0.9825 -0.1862 0.1862 0.9825 -61.5818 149.5768)" class="st1" cx="765.5" cy="402.6" rx="18.4" ry="18.4"/>
<ellipse class="st1" cx="477.5" cy="469.3" rx="23.1" ry="23.1"/>
<path class="st1" d="M843.5,684c-17.2-5.2-35.3,4.5-40.5,21.6c-3,10-1,20.4,4.6,28.3h52.9c2-2.8,3.6-5.9,4.6-9.4
	C870.4,707.4,860.7,689.3,843.5,684z"/>
<ellipse transform="matrix(0.8136 -0.5815 0.5815 0.8136 -102.7846 634.607)" class="st1" cx="938.2" cy="477.6" rx="39.1" ry="39.1"/>
<ellipse class="st1" cx="958.7" cy="645.9" rx="31.9" ry="31.9"/>
<path class="st1" d="M1092.5,723.8c-13.4-10.2-32.6-7.6-42.8,5.8c-1.1,1.4-2,2.9-2.8,4.4h54.2
	C1099.1,730.1,1096.2,726.6,1092.5,723.8z"/>
<path class="st2" d="M222.8,596.2C166.5,595.1,120,640,119,696.3c-0.2,13.3,2.1,26,6.5,37.7h191c4-10.6,6.3-22.1,6.5-34
	C323.9,643.6,279.1,597.2,222.8,596.2z"/>
<ellipse transform="matrix(0.9811 -0.1933 0.1933 0.9811 -119.6076 28.3054)" class="st2" cx="85.2" cy="626.9" rx="26.7" ry="26.7"/>
<ellipse class="st2" cx="110.6" cy="397.3" rx="61" ry="61"/>
<ellipse transform="matrix(0.6285 -0.7778 0.7778 0.6285 -106.2009 277.083)" class="st2" cx="237" cy="249.7" rx="21.1" ry="21.1"/>
<polygon class="st3" points="1235.8,734 1243.7,734 1239.8,727.1 "/>
<polygon class="st3" points="1194.1,410.1 1238,410.1 1216,372.1 "/>
<polygon class="st3" points="404.9,419 454.6,419 429.7,376 "/>
<polygon class="st3" points="344.4,469 381.1,469 362.8,437.2 "/>
<polygon class="st3" points="117.5,570.6 160,570.6 138.8,533.8 "/>
<polygon class="st3" points="63.8,555.1 121.4,555.1 92.6,505.2 "/>
<polygon class="st3" points="389.7,528.9 449.6,528.9 419.7,477 "/>
<polygon class="st4" points="988.7,410.3 1005.4,410.3 997,395.8 "/>
<polygon class="st4" points="524.7,305.3 541.4,305.3 533,290.8 "/>
<polygon class="st4" points="758.6,724.9 871.3,724.9 815,627.2 "/>
<polygon class="st4" points="692.7,619.9 806.3,619.9 749.5,521.5 "/>
<polygon class="st4" points="1297.6,726.3 1409.6,726.3 1353.6,629.3 "/>
<polygon class="st4" points="363,665 453,665 408,587.1 "/>
<polygon class="st4" points="112.4,315.4 188.3,315.4 150.3,249.7 "/>
<polygon class="st4" points="52.5,263.3 129.2,263.3 90.9,196.9 "/>
<path class="st0" d="M357.4,560.6H256.7c-2.3,0-4.1,1.8-4.1,4.1s1.8,4.1,4.1,4.1h100.7c2.3,0,4.1-1.8,4.1-4.1
	S359.7,560.6,357.4,560.6z"/>
<path class="st0" d="M411.4,544.6H310.7c-2.3,0-4.1,1.8-4.1,4.1s1.8,4.1,4.1,4.1h100.7c2.3,0,4.1-1.8,4.1-4.1
	S413.7,544.6,411.4,544.6z"/>
<path class="st0" d="M141.4,408.8H40.7c-2.3,0-4.1,1.8-4.1,4.1s1.8,4.1,4.1,4.1h100.7c2.3,0,4.1-1.8,4.1-4.1
	S143.7,408.8,141.4,408.8z"/>
<path class="st0" d="M458.2,266.2H357.4c-2.3,0-4.1,1.8-4.1,4.1s1.8,4.1,4.1,4.1h100.7c2.3,0,4.1-1.8,4.1-4.1
	S460.4,266.2,458.2,266.2z"/>
<path class="st0" d="M1224.2,282.2h-100.7c-2.3,0-4.1,1.8-4.1,4.1s1.8,4.1,4.1,4.1h100.7c2.3,0,4.1-1.8,4.1-4.1
	S1226.4,282.2,1224.2,282.2z"/>
<path class="st0" d="M1254.2,321.2h-100.7c-2.3,0-4.1,1.8-4.1,4.1s1.8,4.1,4.1,4.1h100.7c2.3,0,4.1-1.8,4.1-4.1
	S1256.4,321.2,1254.2,321.2z"/>
<path class="st3" d="M264.4,372.4H130.1c-3,0-5.5,2.5-5.5,5.5s2.5,5.5,5.5,5.5h134.3c3,0,5.5-2.5,5.5-5.5S267.4,372.4,264.4,372.4z"
	/>
<path class="st5" d="M225.3,427.4H91c-3,0-5.5,2.5-5.5,5.5s2.5,5.5,5.5,5.5h134.3c3,0,5.5-2.5,5.5-5.5S228.4,427.4,225.3,427.4z"/>
<path class="st2" d="M1203.5,299h-134.3c-3,0-5.5,2.5-5.5,5.5s2.5,5.5,5.5,5.5h134.3c3,0,5.5-2.5,5.5-5.5S1206.5,299,1203.5,299z"/>
<path class="st2" d="M456.4,240.3H322.1c-3,0-5.5,2.5-5.5,5.5s2.5,5.5,5.5,5.5h134.3c3,0,5.5-2.5,5.5-5.5
	C461.9,242.7,459.5,240.3,456.4,240.3z"/>
<path class="st2" d="M374,300.1H239.7c-3,0-5.5,2.5-5.5,5.5s2.5,5.5,5.5,5.5H374c3,0,5.5-2.5,5.5-5.5S377,300.1,374,300.1z"/>
<circle class="st2" cx="1072.2" cy="196.6" r="67.4"/>
<path class="st2" d="M1329.8,313.1c-8.1-4.4-18.3-1.4-22.7,6.7c-4.4,8.1-1.4,18.3,6.7,22.7s18.3,1.4,22.7-6.7
	C1341,327.6,1337.9,317.5,1329.8,313.1z"/>
<ellipse transform="matrix(0.9963 -8.610332e-02 8.610332e-02 0.9963 -42.5055 119.5413)" class="st2" cx="1364.5" cy="552.5" rx="36.3" ry="36.3"/>
<path class="st0" d="M1297.7,583.8L740.2,26.2c-1-1-2.6-1-3.5,0L179.1,583.8c-0.5,0.5-0.7,1.1-0.7,1.8s0.3,1.3,0.7,1.8L325.8,734
	h7.1L184.4,585.5l554-554l554,554L1144,734h7.1l146.7-146.7C1298.7,586.3,1298.7,584.7,1297.7,583.8z"/>
<polygon class="st3" points="1133.7,658.8 1201.6,658.8 1167.7,600.1 "/>
<path class="st6" d="M1282.4,677.4c0.1-0.7,0-1.3-0.4-1.9L823.5,34.1c-0.8-1.1-2.4-1.4-3.5-0.6L178.5,492c-1.1,0.8-1.4,2.4-0.6,3.5
	L348.4,734h6.1l-171-239.4L820.9,39l455.5,637.4l-80.5,57.5h8.6l76.9-54.9C1281.9,678.7,1282.3,678.1,1282.4,677.4z"/>
<path class="st0" d="M238.4,656.7H137.6c-2.3,0-4.1,1.8-4.1,4.1s1.8,4.1,4.1,4.1h100.7c2.3,0,4.1-1.8,4.1-4.1
	S240.6,656.7,238.4,656.7z"/>
<path class="st0" d="M345.4,708.5H244.6c-2.3,0-4.1,1.8-4.1,4.1s1.8,4.1,4.1,4.1h100.7c2.3,0,4.1-1.8,4.1-4.1
	S347.7,708.5,345.4,708.5z"/>
<path class="st5" d="M345.9,677.1H211.6c-3,0-5.5,2.5-5.5,5.5s2.5,5.5,5.5,5.5h134.3c3,0,5.5-2.5,5.5-5.5
	C351.4,679.6,349,677.1,345.9,677.1z"/>
<path class="st5" d="M252.6,728.5H118.3c-3,0-5.5,2.5-5.5,5.5c0,0,0,0,0,0.1h145.3c0,0,0,0,0-0.1
	C258.1,730.9,255.6,728.5,252.6,728.5z"/>
<polygon class="st4" points="1050.4,554.5 1252.7,554.5 1151.5,379.3 "/>
<path class="st2" d="M1188.1,500.9h-134.3c-3,0-5.5,2.5-5.5,5.5s2.5,5.5,5.5,5.5h134.3c3,0,5.5-2.5,5.5-5.5
	S1191.1,500.9,1188.1,500.9z"/>
<path class="st2" d="M1256.4,477.9h-134.3c-3,0-5.5,2.5-5.5,5.5s2.5,5.5,5.5,5.5h134.3c3,0,5.5-2.5,5.5-5.5
	S1259.4,477.9,1256.4,477.9z"/>
<g id="avatar">
	<path class="st7" d="M653.4,292.8l9.5,121.3c0,0,107.3,91.3,145.2-19.8c24.2-70.9-6.9-80.4-6.9-80.4L653.4,292.8z"/>
	<path class="st3" d="M1017.3,729.6v-22.3c0,0-10.1-143.7-63.3-232.5c-53.3-88.8-148.2-83.4-148.2-83.4
		c-9.9,25.9-48.9,53.3-48.9,53.3l-65.4-34l-95.1-11.9c-117.8,20.9-173.8,330.7-173.8,330.7"/>
	<g>
		<g>
			<defs>
				<path id="SVGID_1_" d="M598.4,398c-117.8,20.9-175.8,330.4-175.8,330.4v5.5h594.7v-27.8c0,0-10-140.8-63.2-229.6
					c-53.3-88.8-148.2-86.2-148.2-86.2c-5.2,23.9-48.8,54.9-48.8,54.9l-65.2-34.1L598.4,398z"/>
			</defs>
			<clipPath id="SVGID_2_">
				<use xlink:href="#SVGID_1_"  style="overflow:visible;"/>
			</clipPath>
			<g class="st8">
				<g>
					<polygon class="st9" points="559.1,480.9 539.1,438.8 559.1,396.6 579.1,438.8 					"/>
					<polygon class="st9" points="559.1,565.3 539.1,523.1 559.1,480.9 579.1,523.1 					"/>
					<polygon class="st9" points="559.1,649.6 539.1,607.4 559.1,565.3 579.1,607.4 					"/>
					<polygon class="st9" points="559.1,733.9 539.1,691.7 559.1,649.6 579.1,691.7 					"/>
					<polygon class="st9" points="519.1,480.9 499.1,438.8 519.1,396.6 539.1,438.8 					"/>
					<polygon class="st9" points="519.1,565.3 499.1,523.1 519.1,480.9 539.1,523.1 					"/>
					<polygon class="st9" points="519.1,649.6 499.1,607.4 519.1,565.3 539.1,607.4 					"/>
					<polygon class="st9" points="519.1,733.9 499.1,691.7 519.1,649.6 539.1,691.7 					"/>
					<polygon class="st9" points="479.1,480.9 459.1,438.8 479.1,396.6 499.1,438.8 					"/>
					<polygon class="st9" points="479.1,565.3 459.1,523.1 479.1,480.9 499.1,523.1 					"/>
					<polygon class="st9" points="479.1,649.6 459.1,607.4 479.1,565.3 499.1,607.4 					"/>
					<polygon class="st9" points="479.1,733.9 459.1,691.7 479.1,649.6 499.1,691.7 					"/>
					<polygon class="st9" points="439.1,480.9 419.1,438.8 439.1,396.6 459.1,438.8 					"/>
					<polygon class="st9" points="439.1,565.3 419.1,523.1 439.1,480.9 459.1,523.1 					"/>
					<polygon class="st9" points="439.1,649.6 419.1,607.4 439.1,565.3 459.1,607.4 					"/>
					<polygon class="st9" points="439.1,733.9 419.1,691.7 439.1,649.6 459.1,691.7 					"/>
				</g>
				<g>
					<polygon class="st9" points="719.1,480.9 699.1,438.8 719.1,396.6 739.1,438.8 					"/>
					<polygon class="st9" points="719.1,565.3 699.1,523.1 719.1,480.9 739.1,523.1 					"/>
					<polygon class="st9" points="719.1,649.6 699.1,607.4 719.1,565.3 739.1,607.4 					"/>
					<polygon class="st9" points="719.1,733.9 699.1,691.7 719.1,649.6 739.1,691.7 					"/>
					<polygon class="st9" points="679.1,480.9 659.1,438.8 679.1,396.6 699.1,438.8 					"/>
					<polygon class="st9" points="679.1,565.3 659.1,523.1 679.1,480.9 699.1,523.1 					"/>
					<polygon class="st9" points="679.1,649.6 659.1,607.4 679.1,565.3 699.1,607.4 					"/>
					<polygon class="st9" points="679.1,733.9 659.1,691.7 679.1,649.6 699.1,691.7 					"/>
					<polygon class="st9" points="639.1,480.9 619.1,438.8 639.1,396.6 659.1,438.8 					"/>
					<polygon class="st9" points="639.1,565.3 619.1,523.1 639.1,480.9 659.1,523.1 					"/>
					<polygon class="st9" points="639.1,649.6 619.1,607.4 639.1,565.3 659.1,607.4 					"/>
					<polygon class="st9" points="639.1,733.9 619.1,691.7 639.1,649.6 659.1,691.7 					"/>
					<polygon class="st9" points="599.1,480.9 579.1,438.8 599.1,396.6 619.1,438.8 					"/>
					<polygon class="st9" points="599.1,565.3 579.1,523.1 599.1,480.9 619.1,523.1 					"/>
					<polygon class="st9" points="599.1,649.6 579.1,607.4 599.1,565.3 619.1,607.4 					"/>
					<polygon class="st9" points="599.1,733.9 579.1,691.7 599.1,649.6 619.1,691.7 					"/>
				</g>
				<g>
					<polygon class="st9" points="879.1,480.9 859.1,438.8 879.1,396.6 899.1,438.8 					"/>
					<polygon class="st9" points="879.1,565.3 859.1,523.1 879.1,480.9 899.1,523.1 					"/>
					<polygon class="st9" points="879.1,649.6 859.1,607.4 879.1,565.3 899.1,607.4 					"/>
					<polygon class="st9" points="879.1,733.9 859.1,691.7 879.1,649.6 899.1,691.7 					"/>
					<polygon class="st9" points="839.1,480.9 819.1,438.8 839.1,396.6 859.1,438.8 					"/>
					<polygon class="st9" points="839.1,565.3 819.1,523.1 839.1,480.9 859.1,523.1 					"/>
					<polygon class="st9" points="839.1,649.6 819.1,607.4 839.1,565.3 859.1,607.4 					"/>
					<polygon class="st9" points="839.1,733.9 819.1,691.7 839.1,649.6 859.1,691.7 					"/>
					<polygon class="st9" points="799.1,480.9 779.1,438.8 799.1,396.6 819.1,438.8 					"/>
					<polygon class="st9" points="799.1,565.3 779.1,523.1 799.1,480.9 819.1,523.1 					"/>
					<polygon class="st9" points="799.1,649.6 779.1,607.4 799.1,565.3 819.1,607.4 					"/>
					<polygon class="st9" points="799.1,733.9 779.1,691.7 799.1,649.6 819.1,691.7 					"/>
					<polygon class="st9" points="759.1,480.9 739.1,438.8 759.1,396.6 779.1,438.8 					"/>
					<polygon class="st9" points="759.1,565.3 739.1,523.1 759.1,480.9 779.1,523.1 					"/>
					<polygon class="st9" points="759.1,649.6 739.1,607.4 759.1,565.3 779.1,607.4 					"/>
					<polygon class="st9" points="759.1,733.9 739.1,691.7 759.1,649.6 779.1,691.7 					"/>
				</g>
				<g>
					<polygon class="st9" points="1039.1,480.9 1019.1,438.8 1039.1,396.6 1059.1,438.8 					"/>
					<polygon class="st9" points="1039.1,565.3 1019.1,523.1 1039.1,480.9 1059.1,523.1 					"/>
					<polygon class="st9" points="1039.1,649.6 1019.1,607.4 1039.1,565.3 1059.1,607.4 					"/>
					<polygon class="st9" points="1039.1,733.9 1019.1,691.7 1039.1,649.6 1059.1,691.7 					"/>
					<polygon class="st9" points="999.1,480.9 979.1,438.8 999.1,396.6 1019.1,438.8 					"/>
					<polygon class="st9" points="999.1,565.3 979.1,523.1 999.1,480.9 1019.1,523.1 					"/>
					<polygon class="st9" points="999.1,649.6 979.1,607.4 999.1,565.3 1019.1,607.4 					"/>
					<polygon class="st9" points="999.1,733.9 979.1,691.7 999.1,649.6 1019.1,691.7 					"/>
					<polygon class="st9" points="959.1,480.9 939.1,438.8 959.1,396.6 979.1,438.8 					"/>
					<polygon class="st9" points="959.1,565.3 939.1,523.1 959.1,480.9 979.1,523.1 					"/>
					<polygon class="st9" points="959.1,649.6 939.1,607.4 959.1,565.3 979.1,607.4 					"/>
					<polygon class="st9" points="959.1,733.9 939.1,691.7 959.1,649.6 979.1,691.7 					"/>
					<polygon class="st9" points="919.1,480.9 899.1,438.8 919.1,396.6 939.1,438.8 					"/>
					<polygon class="st9" points="919.1,565.3 899.1,523.1 919.1,480.9 939.1,523.1 					"/>
					<polygon class="st9" points="919.1,649.6 899.1,607.4 919.1,565.3 939.1,607.4 					"/>
					<polygon class="st9" points="919.1,733.9 899.1,691.7 919.1,649.6 939.1,691.7 					"/>
				</g>
			</g>
		</g>
	</g>
	<g>
		<g>
			<path class="st10" d="M1019.8,729c0-7.7,0.5-15.6-0.1-23.3c-0.5-7.4-1.4-14.7-2.2-22c-4-33.8-10-67.5-18.5-100.5
				c-5.3-20.5-11.5-40.8-19.2-60.5c-7.7-19.6-16.7-39-28.5-56.6c-21-31.4-51.8-54.8-87.6-66.8c-12-4-24.4-6.7-36.9-8.2
				c-6.5-0.8-13.1-1.3-19.7-1c-0.3,0-0.6,0-0.9,0c-1,0.1-2.4,0.5-2.8,1.5c-5.6,14.2-17.1,26-28.2,36.2c-6.4,5.8-13.1,11.4-20.2,16.4
				c1.3-0.2,2.6-0.4,3.9-0.6c-16.2-8.4-32.5-16.9-48.7-25.3c-4-2.1-8-4.2-12-6.2c-1.6-0.8-3.2-2-4.9-2.5c-1.5-0.5-3.3-0.5-4.8-0.6
				c-3.7-0.5-7.4-0.9-11.1-1.4c-22.2-2.8-44.4-5.5-66.7-8.3c-5.1-0.6-10.9-2.3-16.1-1.3c-8.9,1.8-17.5,5.2-25.5,9.7
				c-17.8,10-32.3,25.2-44.5,41.3c-14.3,19-26,39.9-36.2,61.3c-11,22.9-20.3,46.6-28.6,70.6c-7.7,22.3-14.6,45-20.8,67.8
				c-4.8,17.6-9.1,35.3-13.1,53c-2,8.9-3.9,17.9-5.6,26.9c-0.1,0.4-0.2,0.8-0.2,1.2c-0.3,1.8,4.6,1.1,4.8-0.5
				c1.1-6.1,2.4-12.1,3.6-18.2c3.3-15.7,7-31.4,11-46.9c5.5-21.5,11.6-42.8,18.4-64c7.6-23.7,16.1-47.1,25.9-69.9
				c9.6-22.4,20.6-44.4,33.8-65c11.5-17.7,24.8-34.8,41.6-47.8c7.1-5.5,14.9-10.3,23.4-13.6c4.1-1.6,8.3-2.7,12.6-3.7
				c1.4-0.3,0-0.1,0.1-0.1c0.2,0,0.4,0,0.6,0.1c0.9,0.2,1.9,0.2,2.9,0.4c20.5,2.6,41,5.1,61.5,7.7c8.7,1.1,17.5,2.2,26.2,3.3
				c0.9,0.1,1.9,0.3,2.9,0.4c1.4,0.1,0.4,0.4,0-0.1c1,1.2,4,2.1,5.4,2.8c18.5,9.6,36.9,19.2,55.4,28.8c1.5,0.8,3,1.6,4.6,2.4
				c1.2,0.6,2.9,0,3.9-0.6c7.5-5.3,14.6-11.2,21.3-17.4c11.1-10.3,22.5-22.1,28.1-36.5c-0.9,0.5-1.9,1-2.8,1.5c0.3,0,0.6-0.1,0.9,0
				c-0.9-0.1,0.3,0,0.6,0c0.6,0,1.1,0,1.7,0c3.3,0,6.5,0.2,9.8,0.4c11.3,0.9,22.5,2.9,33.4,6c34.5,9.6,65.2,29.9,87.3,58.2
				c13.2,16.9,23.1,36.3,31.5,56c8.2,19.3,14.8,39.2,20.4,59.4c9.5,34.2,16.1,69.2,20.6,104.4c1.2,9,2.2,18.1,3,27.2
				c0.6,6.8,0.3,13.6,0.3,20.3c0,1.8,0,3.7,0,5.5C1014.9,731.6,1019.8,730.8,1019.8,729L1019.8,729z"/>
		</g>
	</g>
	<path class="st11" d="M602.9,509.6c3.7,14.8,8,29.4,13.1,44.1c11.3,33,31.8,58.7,62.2,76.3c27.5,15.9,66.8-20.2,81.2-42.5
		c-1.8,2.7-22.5,9.9-26.1,11.5c-42.3,18.4-57-24.3-59.1-57.8c-1.2-19.5-3.5-37.4-6.9-55.9c-4.2-22.3-1.2-41.6,2.3-63.9
		c2-12.5,7.6-24.2,9.8-36.7c2.3-12.8,2.6-25.8,2-38.8c-0.5-10.5-1.4-21-2.7-31.4c-1-7.9,1.3-16.2-3.1-23.4c-2.1-3.4-4-6.9-5.7-10.5
		c-6.1-13.3-10.2-27.5-13.8-41.6c-3.4-13.2-5.8-54.1-2.1-68.3c0,0,21.6-17.4,54-42.2c0,0,65,36.5,115.6,14.2
		c0,0,14.1,83.6,4.9,115.4S790,335.4,790,335.4c-11.2,7.2,1.7,49.9,5.1,58.9c7.7,20.6,24.3,35.3,38.9,50.9
		c12.4,13.3,20.8,28.7,27.2,45.6c10.7,28.5,29.4,57.4,27.2,89c-2.3,32.4-44.6,38.3-66.7,19c13.3,11.6,28.4,29,48,25.3
		c40.3-7.6,56.4-69.6,53.3-104.8c-2.4-27.2-7.3-55.1-19.1-79.9c-10.8-22.6-33-37.2-40.2-61.5c-6.4-21.5-5.8-42.6-4.8-64.8
		c0.9-19.2,8.1-38.9,6.5-58.1c-1.3-15.7,1.3-30.1,0.6-45.9c-0.7-17.3-1-34.8-5-51.7c-3.5-14.9-11.7-26.5-17.3-40.2
		c-12.3-30.6-27.8-56.9-55.3-76.3C735.9,4,678.4,40,678.4,40c-15.8-3.2-43.4,12.3-54.6,22.1c-18,15.8-27.4,37.2-31,60.6
		c-3.4,22.9-7.9,45-10.2,68.3c-1.6,16.2,1.7,36.5,2.3,53.4c0.5,13.3-0.3,27.5-0.9,41.1C580.7,361.3,584.1,435.7,602.9,509.6z"/>
	<path class="st12" d="M837.1,188.2c6.4-4.4,18.8,7.8,9.8,36s-19.5,27.5-19.9,29.7"/>
	<path class="st7" d="M842.9,210.9c0,20.6-3.1,52.4-18.8,84.5c-6.3,12.9-9.6,16.1-18.2,27.7c-22.7,30.4-33.6,32.6-56.9,28.2
		c-37.4-7-66.8-22.5-82-52.7c-10.5-20.9-20.5-61.8-20.5-88.9C646.5,132,689.1,69,746.4,69C803.6,68.9,842.9,133.2,842.9,210.9z"/>
	<path class="st10" d="M710.4,195.6c0,4.6-2.3,8.4-5.1,8.4s-5.1-3.7-5.1-8.4c0-4.6,2.3-8.4,5.1-8.4
		C708.1,187.3,710.4,191,710.4,195.6z"/>
	<path class="st10" d="M814.1,192.4c0,4.6-2.3,8.4-5.1,8.4s-5.1-3.7-5.1-8.4s2.3-8.4,5.1-8.4C811.8,184.1,814.1,187.8,814.1,192.4z"
		/>
	<g>
		<path class="st10" d="M678.2,165.1c2.7-0.9,5.3-2.1,7.7-3.6c2.5-1.4,4.9-3,7.4-4.4c2.6-1.4,5.3-2.6,8.3-3.4
			c2.9-0.7,5.8-1.2,8.7-1.5c3-0.3,5.9-0.5,9-0.4c3,0.1,6.1,0.7,9,1.8s5.6,2.6,7.9,4.6c2.3,2,4.3,4.3,5.7,7l-0.4,0.3
			c-2.4-1.7-4.8-3.1-7.2-4.4c-2.4-1.2-5-2.1-7.6-2.8s-5.2-1.2-7.9-1.6c-2.7-0.4-5.5-0.6-8.2-0.5c-2.8,0.1-5.6,0.4-8.3,0.8
			c-2.7,0.4-5.3,1.3-7.9,2.4c-5.2,2.1-10.3,5.2-16.1,6.2L678.2,165.1z"/>
	</g>
	<g>
		<path class="st10" d="M824.4,160.8c-3-4-7.4-6.9-11.9-8.6c-1.1-0.5-2.3-0.8-3.5-1.2c-1.2-0.3-2.4-0.5-3.6-0.8
			c-0.6-0.2-1.2-0.2-1.8-0.3l-1.8-0.2c-0.6,0-1.2-0.2-1.8-0.1h-1.8h-1.8h-0.9l-0.9,0.1l-3.6,0.5l-0.9,0.1c-0.3,0-0.6,0.1-0.9,0.2
			c-0.6,0.1-1.2,0.2-1.8,0.3c-1.2,0.2-2.4,0.3-3.6,0.5c-2.4,0.5-4.9,0.8-7.4,1.2c-2.5,0.5-5,0.9-7.6,1.1l-0.2-0.5
			c2.2-1.5,4.5-2.8,6.8-3.9c2.4-1.1,4.9-1.9,7.4-2.7c1.3-0.3,2.6-0.5,3.9-0.8c1.3-0.2,2.6-0.5,3.9-0.4h4h1l1,0.1l2,0.2l2,0.2
			c0.7,0,1.3,0.2,2,0.3l2,0.4c0.7,0.1,1.3,0.2,1.9,0.5c1.3,0.4,2.5,0.8,3.8,1.2c1.2,0.6,2.4,1,3.6,1.7c2.3,1.3,4.5,2.7,6.4,4.6
			c1.9,1.8,3.6,3.8,4.9,6.1L824.4,160.8z"/>
	</g>
	<g>
		<path class="st10" d="M801.2,277.8c-5.6,3.7-11.8,6.4-18.3,8.2c-3.2,0.9-6.5,1.6-9.8,2.2s-6.7,0.9-10,1.1
			c-3.4,0.2-6.7,0.2-10.1-0.1c-3.3-0.2-6.7-0.6-10-1c-3.3-0.5-6.6-1.1-9.9-1.9c-1.6-0.4-3.2-0.9-4.8-1.4s-3.2-1.1-4.7-1.8
			c3.2,1,6.5,1.6,9.7,2.1c3.3,0.5,6.6,0.9,9.9,1.2c3.3,0.3,6.6,0.5,9.9,0.8c3.3,0.2,6.6,0.2,9.9,0.1c6.6-0.3,13.1-1.2,19.6-2.7
			C788.9,283,795.2,280.9,801.2,277.8z"/>
	</g>
	<path class="st13" d="M635.8,208.9c0,0,11.4-2.5,27.1-19.1c14.9-15.7,31.9-51.3,50.3-69.4c0,0,8.6,2.2,35.7,12.5
		c24.4,9.3,69.6,36.8,102.2,29.5c0,0-19.5-88.3-65.5-104.4C679.7,21.1,633.6,139.3,635.8,208.9z"/>
	<g>
		<path class="st10" d="M748.9,174.8c1,1.8,1.5,3.8,1.9,5.7c0.4,2,0.8,3.9,1.1,5.9c0.6,4,1,8,1.3,12s0.5,8,0.5,12c0,2,0,4-0.2,6.1
			l-0.8,5.9c-1,7.9-2.4,15.8-2.3,23.5c0.1,1.9,0.3,3.8,0.9,5.4c0.3,0.8,0.7,1.4,1.4,2.3c0.6,0.8,1.2,1.5,1.8,2.2
			c0.6,0.7,1.3,1.3,2,1.6c0.7,0.3,1.5,0.3,2.5,0.1c1-0.2,2.1-0.3,3.1-0.2c1,0.1,2,0.3,3,0.7c-1-0.1-2-0.1-3,0s-1.9,0.4-2.8,0.7
			c-0.5,0.2-1,0.3-1.6,0.4s-1.2,0.1-1.8-0.1c-1.2-0.4-2.1-1.1-2.9-1.7c-0.8-0.7-1.5-1.5-2.2-2.2l-0.5-0.6l-0.3-0.3l-0.3-0.4
			c-0.4-0.5-0.6-1-0.9-1.5c-0.9-2.1-1.2-4.2-1.3-6.3c-0.3-4.1,0.1-8.2,0.5-12.2s1-8,1.6-11.9l0.8-5.9c0.3-1.8,0.3-3.8,0.4-5.8
			c0.1-4,0.1-7.9,0-11.9s-0.2-8-0.4-11.9c-0.1-2-0.3-4-0.5-5.9c-0.1-1-0.2-2-0.4-2.9C749.5,176.7,749.3,175.7,748.9,174.8z"/>
	</g>
	<path class="st14" d="M649.9,204.2c-8.2-4.6-26.7,7.9-15.1,37.6c11.6,29.7,27.6,29.2,28.1,31.5"/>
	<path class="st15" d="M719.9,248.6c-1.1,7.2-10.9,11.7-21.7,10c-10.9-1.7-18.7-9-17.6-16.2c1.1-7.2,10.9-11.7,21.7-10
		C713.2,234.1,721.1,241.4,719.9,248.6z"/>
	<path class="st15" d="M831.9,235.9c1,7.3-6.2,14.2-16,15.5s-18.6-3.5-19.6-10.7c-1-7.3,6.2-14.2,16-15.5
		C822.2,223.8,830.9,228.6,831.9,235.9z"/>
	<path class="st10" d="M651.3,225.1c-0.8-1-2.2-1.3-3.8-0.4c-2.2,1.4-2.9,4.7-2.7,7.2c0.2,1.7,1,3.6,2.1,4.8
		c4.7,5.5,6.1,8.8,6.1,8.8c-1-2-1.8-4-2.5-6.1c-0.6-1.8-2.8-6.6-0.2-7.9C652.5,230.4,652.8,226.9,651.3,225.1z"/>
	<line class="st16" x1="640.1" y1="118.4" x2="680.5" y2="147.5"/>
	<line class="st16" x1="633.2" y1="125.3" x2="673.6" y2="154.4"/>
	<g>
		<path class="st10" d="M730.5,292.8c5.8,1.8,11.1,4.9,16.4,7.5c5.3,2.6,10.9,4.7,16.5,4.5c1.4,0,2.8-0.2,4.2-0.5s2.7-0.7,4-1.3
			c2.6-1.1,5-2.7,7.3-4.6c2.2-1.9,4.3-4,6.4-6.2c2.1-2.1,4.2-4.4,6.9-5.9c-2.3,2-4,4.4-5.8,6.8s-3.7,4.8-6,6.9
			c-2.2,2.2-4.8,4.1-7.6,5.4c-2.9,1.4-6.1,2.1-9.3,2.2c-3.2,0.2-6.4-0.5-9.3-1.4c-3-1-5.7-2.4-8.4-3.9
			C740.5,299.4,735.7,295.8,730.5,292.8z"/>
	</g>
	<path class="st17" d="M601.6,580.8c0,0-33.4,43.5-19.5,140"/>
	<path class="st17" d="M957.5,717.7c0,0,24.3-49.2-8-141.1"/>
</g>
</svg>
