<?xml version="1.0" encoding="utf-8"?>
<!-- Generator: Adobe Illustrator 24.0.1, SVG Export Plug-In . SVG Version: 6.00 Build 0)  -->
<svg version="1.1" id="Layer_1" xmlns="http://www.w3.org/2000/svg" xmlns:xlink="http://www.w3.org/1999/xlink" x="0px" y="0px"
	 viewBox="0 0 1440 734" style="enable-background:new 0 0 1440 734;" xml:space="preserve">
<style type="text/css">
	.st0{fill:#EFF7F6;}
	.st1{fill:#231F20;}
	.st2{fill:#7BDFF2;}
	.st3{fill:#B2F7EF;}
	.st4{fill:#F7D6E0;}
	.st5{fill:#F2B5D4;}
	.st6{fill:#2C2C2C;}
	.st7{fill:#E7E1F8;}
	.st8{fill:#606060;}
	.st9{fill:#FFFFFF;}
	.st10{fill-rule:evenodd;clip-rule:evenodd;fill:#231F20;}
	.st11{clip-path:url(#SVGID_2_);}
	.st12{fill:none;stroke:#B2F7EF;stroke-width:5;stroke-linecap:round;stroke-linejoin:round;stroke-miterlimit:10;}
	.st13{fill:none;stroke:#F7D6E0;stroke-width:5;stroke-linecap:round;stroke-linejoin:round;stroke-miterlimit:10;}
</style>
<g>
	<defs>
		<rect id="SVGID_1_" x="72" y="67.7" width="1296" height="660.6"/>
	</defs>
	<clipPath id="SVGID_2_">
		<use xlink:href="#SVGID_1_"  style="overflow:visible;"/>
	</clipPath>
	<g class="st11">
		<g>
			<circle id="Ellipse_6_13_" class="st3" cx="1324" cy="316.6" r="23.8"/>
		</g>
		<g>
			<circle id="Ellipse_6_12_" class="st3" cx="1251" cy="480.9" r="28.2"/>
		</g>
		<g>
			<circle id="Ellipse_6_11_" class="st3" cx="1313.5" cy="487.9" r="14"/>
		</g>
		<g>
			<circle id="Ellipse_6_14_" class="st3" cx="1318.5" cy="410.8" r="9.2"/>
		</g>
		<g>
			<circle id="Ellipse_6_10_" class="st3" cx="1037.4" cy="620.3" r="35.4"/>
		</g>
		<g>
			<circle id="Ellipse_6_8_" class="st3" cx="279.4" cy="476.7" r="36"/>
		</g>
		<g>
			<circle id="Ellipse_6_6_" class="st3" cx="956.2" cy="576.3" r="14.8"/>
		</g>
		<g>
			<circle id="Ellipse_8_17_" class="st7" cx="1219" cy="290" r="38.7"/>
		</g>
		<g>
			<circle id="Ellipse_8_16_" class="st7" cx="261.8" cy="261.1" r="9.3"/>
		</g>
		<g>
			<circle id="Ellipse_8_15_" class="st7" cx="922.1" cy="367.8" r="18.6"/>
		</g>
		<g>
			<circle id="Ellipse_8_14_" class="st7" cx="848.1" cy="407.5" r="13.2"/>
		</g>
		<g>
			<circle id="Ellipse_8_13_" class="st7" cx="760.9" cy="430" r="16.6"/>
		</g>
		<g>
			<circle id="Ellipse_8_12_" class="st7" cx="501.8" cy="490.1" r="20.8"/>
		</g>
		<g>
			<circle id="Ellipse_8_8_" class="st7" cx="822.7" cy="711.3" r="29.2"/>
		</g>
		<g>
			<circle id="Ellipse_8_7_" class="st7" cx="916.3" cy="497.5" r="35.2"/>
		</g>
		<g>
			<circle id="Ellipse_8_6_" class="st7" cx="934.8" cy="649" r="28.7"/>
		</g>
		<g>
			<circle id="Ellipse_8_5_" class="st7" cx="1038.6" cy="741" r="27.5"/>
		</g>
		<g>
			<circle id="Ellipse_5_20_" class="st2" cx="270.9" cy="696" r="91.8"/>
		</g>
		<g>
			<circle id="Ellipse_5_19_" class="st2" cx="148.7" cy="631.9" r="24"/>
		</g>
		<g>
			<circle id="Ellipse_5_18_" class="st2" cx="171.5" cy="425.3" r="54.9"/>
		</g>
		<g>
			<circle id="Ellipse_5_9_" class="st2" cx="285.3" cy="292.5" r="19"/>
		</g>
		<g>
			<polygon class="st9" points="1187.8,722.1 1171.3,750.7 1204.3,750.7 			"/>
		</g>
		<g>
			<polygon class="st9" points="1166.4,402.6 1146.6,436.8 1186.2,436.8 			"/>
		</g>
		<g>
			<polygon class="st9" points="458.8,406.1 436.4,444.8 481.1,444.8 			"/>
		</g>
		<g>
			<polygon class="st9" points="398.5,461.2 382,489.8 415,489.8 			"/>
		</g>
		<g>
			<polygon class="st9" points="196.9,548.1 177.8,581.3 216,581.3 			"/>
		</g>
		<g>
			<polygon class="st9" points="155.3,522.4 129.4,567.3 181.3,567.3 			"/>
		</g>
		<g>
			<polygon class="st9" points="449.7,497 422.7,543.7 476.7,543.7 			"/>
		</g>
		<g>
			<polygon class="st5" points="969.3,423.9 961.8,437 976.9,437 			"/>
		</g>
		<g>
			<polygon class="st5" points="551.7,329.4 544.2,342.5 559.3,342.5 			"/>
		</g>
		<g>
			<polygon class="st5" points="805.5,632.2 754.7,720.1 856.2,720.1 			"/>
		</g>
		<g>
			<polygon class="st5" points="746.5,537 695.4,625.6 797.7,625.6 			"/>
		</g>
		<g>
			<polygon class="st5" points="1290.2,634.1 1239.8,721.4 1340.6,721.4 			"/>
		</g>
		<g>
			<polygon class="st5" points="439.2,596.1 398.7,666.2 479.7,666.2 			"/>
		</g>
		<g>
			<polygon class="st5" points="207.3,292.4 173.1,351.6 241.4,351.6 			"/>
		</g>
		<g>
			<polygon class="st5" points="153.8,244.9 119.3,304.7 188.3,304.7 			"/>
		</g>
		<g>
			<path class="st3" d="M393.7,579.7H303c-2,0-3.7-1.7-3.7-3.7l0,0c0-2,1.7-3.7,3.7-3.7h90.7c2,0,3.7,1.7,3.7,3.7l0,0
				C397.4,578,395.7,579.7,393.7,579.7z"/>
		</g>
		<g>
			<path class="st3" d="M442.3,565.3h-90.7c-2,0-3.7-1.7-3.7-3.7l0,0c0-2,1.7-3.7,3.7-3.7h90.7c2,0,3.7,1.7,3.7,3.7l0,0
				C446,563.6,444.3,565.3,442.3,565.3z"/>
		</g>
		<g>
			<path class="st3" d="M199.3,443h-90.7c-2,0-3.7-1.7-3.7-3.7v0c0-2,1.7-3.7,3.7-3.7h90.7c2,0,3.7,1.7,3.7,3.7v0
				C203,441.4,201.3,443,199.3,443z"/>
		</g>
		<g>
			<path class="st3" d="M484.4,314.6h-90.7c-2,0-3.7-1.7-3.7-3.7l0,0c0-2,1.7-3.7,3.7-3.7h90.7c2,0,3.7,1.7,3.7,3.7l0,0
				C488,313,486.4,314.6,484.4,314.6z"/>
		</g>
		<g>
			<path class="st3" d="M1173.8,329h-90.7c-2,0-3.7-1.7-3.7-3.7l0,0c0-2,1.7-3.7,3.7-3.7h90.7c2,0,3.7,1.7,3.7,3.7l0,0
				C1177.4,327.4,1175.8,329,1173.8,329z"/>
		</g>
		<g>
			<path class="st3" d="M1200.8,364.1h-90.7c-2,0-3.7-1.7-3.7-3.7l0,0c0-2,1.7-3.7,3.7-3.7h90.7c2,0,3.7,1.7,3.7,3.7l0,0
				C1204.4,362.5,1202.8,364.1,1200.8,364.1z"/>
		</g>
		<g>
			<path class="st9" d="M310,412.7H189.1c-2.7,0-4.9-2.2-4.9-4.9l0,0c0-2.7,2.2-4.9,4.9-4.9H310c2.7,0,4.9,2.2,4.9,4.9l0,0
				C314.9,410.5,312.7,412.7,310,412.7z"/>
		</g>
		<g>
			<path class="st0" d="M274.8,462.2H153.9c-2.7,0-4.9-2.2-4.9-4.9l0,0c0-2.7,2.2-4.9,4.9-4.9h120.9c2.7,0,4.9,2.2,4.9,4.9l0,0
				C279.7,460,277.5,462.2,274.8,462.2z"/>
		</g>
		<g>
			<path class="st2" d="M1155.2,346.7h-120.9c-2.7,0-4.9-2.2-4.9-4.9l0,0c0-2.7,2.2-4.9,4.9-4.9h120.9c2.7,0,4.9,2.2,4.9,4.9l0,0
				C1160.1,344.5,1157.9,346.7,1155.2,346.7z"/>
		</g>
		<g>
			<path class="st2" d="M482.8,293.8H361.9c-2.7,0-4.9-2.2-4.9-4.9l0,0c0-2.7,2.2-4.9,4.9-4.9h120.9c2.7,0,4.9,2.2,4.9,4.9l0,0
				C487.7,291.6,485.5,293.8,482.8,293.8z"/>
		</g>
		<g>
			<path class="st2" d="M408.6,347.6H287.7c-2.7,0-4.9-2.2-4.9-4.9v0c0-2.7,2.2-4.9,4.9-4.9h120.9c2.7,0,4.9,2.2,4.9,4.9v0
				C413.5,345.4,411.3,347.6,408.6,347.6z"/>
		</g>
		<g>
			<circle id="Ellipse_5_6_" class="st2" cx="1037" cy="244.6" r="60.7"/>
		</g>
		<g>
			<circle id="Ellipse_5_5_" class="st2" cx="1261.6" cy="362.7" r="15.1"/>
		</g>
		<g>
			<circle id="Ellipse_5_2_" class="st2" cx="1300.1" cy="565" r="32.7"/>
		</g>
		
			<rect x="381.8" y="239.9" transform="matrix(0.7071 0.7071 -0.7071 0.7071 636.2412 -346.6721)" class="st12" width="709.6" height="709.6"/>
		<g>
			<polygon class="st9" points="1122.9,607.7 1092.4,660.6 1153.4,660.6 			"/>
		</g>
		
			<rect x="374.2" y="239.9" transform="matrix(0.5815 0.8136 -0.8136 0.5815 788.9218 -344.1759)" class="st13" width="709.6" height="709.6"/>
		<g>
			<path class="st3" d="M286.5,666.1h-90.7c-2,0-3.7-1.7-3.7-3.7l0,0c0-2,1.7-3.7,3.7-3.7h90.7c2,0,3.7,1.7,3.7,3.7l0,0
				C290.2,664.5,288.6,666.1,286.5,666.1z"/>
		</g>
		<g>
			<path class="st3" d="M382.8,712.8h-90.7c-2,0-3.7-1.7-3.7-3.7l0,0c0-2,1.7-3.7,3.7-3.7h90.7c2,0,3.7,1.7,3.7,3.7l0,0
				C386.5,711.1,384.9,712.8,382.8,712.8z"/>
		</g>
		<g>
			<path class="st0" d="M383.3,687H262.5c-2.7,0-4.9-2.2-4.9-4.9l0,0c0-2.7,2.2-4.9,4.9-4.9h120.9c2.7,0,4.9,2.2,4.9,4.9l0,0
				C388.3,684.8,386.1,687,383.3,687z"/>
		</g>
		<g>
			<path class="st0" d="M299.3,733.2H178.4c-2.7,0-4.9-2.2-4.9-4.9l0,0c0-2.7,2.2-4.9,4.9-4.9h120.9c2.7,0,4.9,2.2,4.9,4.9l0,0
				C304.3,731,302,733.2,299.3,733.2z"/>
		</g>
		<g>
			<polygon class="st5" points="1108.4,409 1017.3,566.7 1199.4,566.7 			"/>
		</g>
		<g>
			<path class="st2" d="M1141.3,528.4h-120.9c-2.7,0-4.9-2.2-4.9-4.9l0,0c0-2.7,2.2-4.9,4.9-4.9h120.9c2.7,0,4.9,2.2,4.9,4.9l0,0
				C1146.2,526.2,1144,528.4,1141.3,528.4z"/>
		</g>
		<g>
			<path class="st2" d="M1202.8,507.7h-120.9c-2.7,0-4.9-2.2-4.9-4.9l0,0c0-2.7,2.2-4.9,4.9-4.9h120.9c2.7,0,4.9,2.2,4.9,4.9l0,0
				C1207.7,505.5,1205.5,507.7,1202.8,507.7z"/>
		</g>
	</g>
</g>
</svg>
