<?xml version="1.0" encoding="utf-8"?>
<!-- Generator: Adobe Illustrator 24.0.1, SVG Export Plug-In . SVG Version: 6.00 Build 0)  -->
<svg version="1.1" id="Layer_1" xmlns="http://www.w3.org/2000/svg" xmlns:xlink="http://www.w3.org/1999/xlink" x="0px" y="0px"
	 viewBox="0 0 1440 734" style="enable-background:new 0 0 1440 734;" xml:space="preserve">
<style type="text/css">
	.st0{fill:#EFF7F6;}
	.st1{fill:#231F20;}
	.st2{fill:#7BDFF2;}
	.st3{fill:#B2F7EF;}
	.st4{fill:#F7D6E0;}
	.st5{fill:#F2B5D4;}
	.st6{fill:#2C2C2C;}
	.st7{fill:#E7E1F8;}
	.st8{fill:#606060;}
	.st9{fill:#FFFFFF;}
	.st10{fill-rule:evenodd;clip-rule:evenodd;fill:#231F20;}
	.st11{display:none;}
	.st12{display:inline;fill:#FFFFFF;}
	.st13{clip-path:url(#SVGID_2_);}
	.st14{fill:none;stroke:#B2F7EF;stroke-width:5;stroke-linecap:round;stroke-linejoin:round;stroke-miterlimit:10;}
	.st15{fill:none;stroke:#F7D6E0;stroke-width:5;stroke-linecap:round;stroke-linejoin:round;stroke-miterlimit:10;}
</style>
<ellipse transform="matrix(0.9902 -0.1394 0.1394 0.9902 -24.9676 196.6705)" class="st3" cx="1391.1" cy="276.5" rx="26.4" ry="26.4"/>
<ellipse transform="matrix(0.7071 -0.7071 0.7071 0.7071 59.0613 1060.7523)" class="st3" cx="1310" cy="459.1" rx="31.4" ry="31.4"/>
<circle class="st3" cx="1379.4" cy="466.9" r="15.6"/>
<path class="st3" d="M1382,371.5c-5.4,1.7-8.4,7.4-6.7,12.8c1.7,5.4,7.4,8.4,12.8,6.7c5.4-1.7,8.4-7.4,6.7-12.8
	C1393.1,372.8,1387.4,369.8,1382,371.5z"/>
<ellipse transform="matrix(0.5639 -0.8258 0.8258 0.5639 -39.3723 1153.5441)" class="st3" cx="1072.6" cy="614.1" rx="39.4" ry="39.4"/>
<ellipse transform="matrix(0.5169 -0.8561 0.8561 0.5169 -277.6996 416.8695)" class="st3" cx="230.5" cy="454.5" rx="40" ry="40"/>
<ellipse transform="matrix(0.8437 -0.5368 0.5368 0.8437 -149.7825 615.6631)" class="st3" cx="982.5" cy="565.1" rx="16.4" ry="16.4"/>
<ellipse transform="matrix(0.7071 -0.7071 0.7071 0.7071 198.666 973.5389)" class="st7" cx="1274.5" cy="247" rx="43" ry="43"/>
<ellipse transform="matrix(0.7419 -0.6705 0.6705 0.7419 -89.6567 196.8844)" class="st7" cx="210.9" cy="214.9" rx="10.3" ry="10.3"/>
<ellipse transform="matrix(0.1301 -0.9915 0.9915 0.1301 491.0653 1226.5588)" class="st7" cx="944.6" cy="333.4" rx="20.6" ry="20.6"/>
<ellipse transform="matrix(0.8828 -0.4698 0.4698 0.8828 -76.2777 449.3801)" class="st7" cx="862.3" cy="377.5" rx="14.7" ry="14.7"/>
<ellipse transform="matrix(0.9825 -0.1862 0.1862 0.9825 -61.5796 149.6033)" class="st7" cx="765.5" cy="402.6" rx="18.4" ry="18.4"/>
<ellipse transform="matrix(0.4355 -0.9002 0.9002 0.4355 -152.8986 694.7831)" class="st7" cx="477.5" cy="469.3" rx="23.1" ry="23.1"/>
<path class="st7" d="M843.5,684c-17.2-5.2-35.3,4.5-40.5,21.6c-3,10-1,20.4,4.6,28.3h52.9c2-2.8,3.6-5.9,4.6-9.4
	C870.4,707.4,860.7,689.3,843.5,684z"/>
<ellipse transform="matrix(0.8136 -0.5815 0.5815 0.8136 -102.7966 634.5792)" class="st7" cx="938.2" cy="477.6" rx="39.1" ry="39.1"/>
<ellipse transform="matrix(0.7071 -0.7071 0.7071 0.7071 -175.9531 867.0797)" class="st7" cx="958.7" cy="645.9" rx="31.9" ry="31.9"/>
<path class="st7" d="M1092.5,723.8c-13.4-10.2-32.6-7.6-42.8,5.8c-1.1,1.4-2,2.9-2.8,4.4h54.2
	C1099.1,730.1,1096.2,726.6,1092.5,723.8z"/>
<path class="st2" d="M222.8,596.2C166.5,595.1,120,640,119,696.3c-0.2,13.3,2.1,26,6.5,37.7h191c4-10.6,6.3-22.1,6.5-34
	C323.9,643.6,279.1,597.2,222.8,596.2z"/>
<ellipse transform="matrix(0.9742 -0.2259 0.2259 0.9742 -139.4058 35.4557)" class="st2" cx="85.2" cy="626.9" rx="26.7" ry="26.7"/>
<ellipse transform="matrix(0.7071 -0.7071 0.7071 0.7071 -248.57 194.5632)" class="st2" cx="110.6" cy="397.3" rx="61" ry="61"/>
<ellipse transform="matrix(0.6285 -0.7778 0.7778 0.6285 -106.205 277.121)" class="st2" cx="237" cy="249.7" rx="21.1" ry="21.1"/>
<polygon class="st9" points="1235.8,734 1243.7,734 1239.8,727.1 "/>
<polygon class="st9" points="1194.1,410.1 1238,410.1 1216,372.1 "/>
<polygon class="st9" points="404.9,419 454.6,419 429.7,376 "/>
<polygon class="st9" points="344.4,469 381.1,469 362.8,437.2 "/>
<polygon class="st9" points="117.5,570.6 160,570.6 138.8,533.8 "/>
<polygon class="st9" points="63.8,555.1 121.4,555.1 92.6,505.2 "/>
<polygon class="st9" points="389.7,528.9 449.6,528.9 419.7,477 "/>
<polygon class="st5" points="988.7,410.3 1005.4,410.3 997,395.8 "/>
<polygon class="st5" points="524.7,305.3 541.4,305.3 533,290.8 "/>
<polygon class="st5" points="758.6,724.9 871.3,724.9 815,627.2 "/>
<polygon class="st5" points="692.7,619.9 806.3,619.9 749.5,521.5 "/>
<polygon class="st5" points="1297.6,726.3 1409.6,726.3 1353.6,629.3 "/>
<polygon class="st5" points="363,665 453,665 408,587.1 "/>
<polygon class="st5" points="112.4,315.4 188.3,315.4 150.3,249.7 "/>
<polygon class="st5" points="52.5,263.3 129.2,263.3 90.9,196.9 "/>
<path class="st3" d="M357.4,560.6H256.7c-2.3,0-4.1,1.8-4.1,4.1s1.8,4.1,4.1,4.1h100.7c2.3,0,4.1-1.8,4.1-4.1
	S359.7,560.6,357.4,560.6z"/>
<path class="st3" d="M411.4,544.6H310.7c-2.3,0-4.1,1.8-4.1,4.1s1.8,4.1,4.1,4.1h100.7c2.3,0,4.1-1.8,4.1-4.1
	S413.7,544.6,411.4,544.6z"/>
<path class="st3" d="M141.4,408.8H40.7c-2.3,0-4.1,1.8-4.1,4.1s1.8,4.1,4.1,4.1h100.7c2.3,0,4.1-1.8,4.1-4.1
	S143.7,408.8,141.4,408.8z"/>
<path class="st3" d="M458.2,266.2H357.4c-2.3,0-4.1,1.8-4.1,4.1s1.8,4.1,4.1,4.1h100.7c2.3,0,4.1-1.8,4.1-4.1
	S460.4,266.2,458.2,266.2z"/>
<path class="st3" d="M1224.2,282.2h-100.7c-2.3,0-4.1,1.8-4.1,4.1s1.8,4.1,4.1,4.1h100.7c2.3,0,4.1-1.8,4.1-4.1
	S1226.4,282.2,1224.2,282.2z"/>
<path class="st3" d="M1254.2,321.2h-100.7c-2.3,0-4.1,1.8-4.1,4.1s1.8,4.1,4.1,4.1h100.7c2.3,0,4.1-1.8,4.1-4.1
	S1256.4,321.2,1254.2,321.2z"/>
<path class="st9" d="M264.4,372.4H130.1c-3,0-5.5,2.5-5.5,5.5s2.5,5.5,5.5,5.5h134.3c3,0,5.5-2.5,5.5-5.5S267.4,372.4,264.4,372.4z"
	/>
<path class="st0" d="M225.3,427.4H91c-3,0-5.5,2.5-5.5,5.5s2.5,5.5,5.5,5.5h134.3c3,0,5.5-2.5,5.5-5.5S228.4,427.4,225.3,427.4z"/>
<path class="st2" d="M1203.5,299h-134.3c-3,0-5.5,2.5-5.5,5.5c0,3,2.5,5.5,5.5,5.5h134.3c3,0,5.5-2.5,5.5-5.5
	C1209,301.5,1206.5,299,1203.5,299z"/>
<path class="st2" d="M456.4,240.3H322.1c-3,0-5.5,2.5-5.5,5.5c0,3,2.5,5.5,5.5,5.5h134.3c3,0,5.5-2.5,5.5-5.5
	C461.9,242.7,459.5,240.3,456.4,240.3z"/>
<path class="st2" d="M374,300.1H239.7c-3,0-5.5,2.5-5.5,5.5s2.5,5.5,5.5,5.5H374c3,0,5.5-2.5,5.5-5.5S377,300.1,374,300.1z"/>
<circle class="st2" cx="1072.2" cy="196.6" r="67.4"/>
<path class="st2" d="M1329.8,313.1c-8.1-4.4-18.3-1.4-22.7,6.7c-4.4,8.1-1.4,18.3,6.7,22.7s18.3,1.4,22.7-6.7
	C1341,327.6,1337.9,317.5,1329.8,313.1z"/>
<ellipse transform="matrix(0.9963 -8.610453e-02 8.610453e-02 0.9963 -42.5081 119.5444)" class="st2" cx="1364.5" cy="552.5" rx="36.3" ry="36.3"/>
<path class="st3" d="M1297.7,583.8L740.2,26.2c-1-1-2.6-1-3.5,0L179.1,583.8c-0.5,0.5-0.7,1.1-0.7,1.8s0.3,1.3,0.7,1.8L325.8,734
	h7.1L184.4,585.5l554-554l554,554L1144,734h7.1l146.7-146.7C1298.7,586.3,1298.7,584.7,1297.7,583.8z"/>
<polygon class="st9" points="1133.7,658.8 1201.6,658.8 1167.7,600.1 "/>
<path class="st4" d="M1282.4,677.4c0.1-0.7,0-1.3-0.4-1.9L823.5,34.1c-0.8-1.1-2.4-1.4-3.5-0.6L178.5,492c-1.1,0.8-1.4,2.4-0.6,3.5
	L348.4,734h6.1L183.5,494.6L820.9,39l455.5,637.4l-80.5,57.5h8.6l76.9-54.9C1281.9,678.7,1282.3,678.1,1282.4,677.4z"/>
<path class="st3" d="M238.4,656.7H137.6c-2.3,0-4.1,1.8-4.1,4.1s1.8,4.1,4.1,4.1h100.7c2.3,0,4.1-1.8,4.1-4.1
	S240.6,656.7,238.4,656.7z"/>
<path class="st3" d="M345.4,708.5H244.6c-2.3,0-4.1,1.8-4.1,4.1s1.8,4.1,4.1,4.1h100.7c2.3,0,4.1-1.8,4.1-4.1
	S347.7,708.5,345.4,708.5z"/>
<path class="st0" d="M345.9,677.1H211.6c-3,0-5.5,2.5-5.5,5.5c0,3,2.5,5.5,5.5,5.5h134.3c3,0,5.5-2.5,5.5-5.5
	C351.4,679.6,349,677.1,345.9,677.1z"/>
<path class="st0" d="M252.6,728.5H118.3c-3,0-5.5,2.5-5.5,5.5c0,0,0,0,0,0.1h145.3c0,0,0,0,0-0.1
	C258.1,730.9,255.6,728.5,252.6,728.5z"/>
<polygon class="st5" points="1050.4,554.5 1252.7,554.5 1151.5,379.3 "/>
<path class="st2" d="M1188.1,500.9h-134.3c-3,0-5.5,2.5-5.5,5.5c0,3,2.5,5.5,5.5,5.5h134.3c3,0,5.5-2.5,5.5-5.5
	C1193.6,503.4,1191.1,500.9,1188.1,500.9z"/>
<path class="st2" d="M1256.4,477.9h-134.3c-3,0-5.5,2.5-5.5,5.5c0,3,2.5,5.5,5.5,5.5h134.3c3,0,5.5-2.5,5.5-5.5
	C1261.9,480.4,1259.4,477.9,1256.4,477.9z"/>
</svg>
