<?xml version="1.0" encoding="utf-8"?>
<!-- Generator: Adobe Illustrator 24.0.1, SVG Export Plug-In . SVG Version: 6.00 Build 0)  -->
<svg version="1.1" id="Layer_1" xmlns="http://www.w3.org/2000/svg" xmlns:xlink="http://www.w3.org/1999/xlink" x="0px" y="0px"
	 viewBox="0 0 1440 734" style="enable-background:new 0 0 1440 734;" xml:space="preserve">
<style type="text/css">
	.st0{fill:#EFF7F6;}
	.st1{fill:#231F20;}
	.st2{fill:#7BDFF2;}
	.st3{fill:#B2F7EF;}
	.st4{fill:#F7D6E0;}
	.st5{fill:#F2B5D4;}
	.st6{fill:#2C2C2C;}
	.st7{fill:#E7E1F8;}
	.st8{fill:#606060;}
	.st9{fill:#FFFFFF;}
	.st10{fill-rule:evenodd;clip-rule:evenodd;fill:#231F20;}
	.st11{clip-path:url(#SVGID_2_);}
	.st12{fill:none;stroke:#B2F7EF;stroke-width:5;stroke-linecap:round;stroke-linejoin:round;stroke-miterlimit:10;}
	.st13{fill:none;stroke:#F7D6E0;stroke-width:5;stroke-linecap:round;stroke-linejoin:round;stroke-miterlimit:10;}
	.st14{fill:#FDF0ED;stroke:#231F20;stroke-width:1.1001;stroke-miterlimit:10;}
	.st15{clip-path:url(#SVGID_4_);}
	.st16{fill:#FAD91D;}
	.st17{fill:none;stroke:#231F20;stroke-miterlimit:10;}
	.st18{fill:none;stroke:#231F20;stroke-width:3;stroke-linecap:round;stroke-linejoin:round;stroke-miterlimit:10;}
	.st19{fill:#3B2713;stroke:#231F20;stroke-width:2;stroke-miterlimit:10;}
	.st20{fill:#FDF0ED;stroke:#231F20;stroke-width:1.3025;stroke-miterlimit:10;}
	.st21{fill:#3B2713;}
	.st22{fill:#FDF0ED;stroke:#231F20;stroke-width:1.516;stroke-miterlimit:10;}
	.st23{fill:#F9CED9;}
	.st24{fill:none;stroke:#E80E8A;stroke-width:4;stroke-miterlimit:10;}
	.st25{fill:none;stroke:#EF5567;stroke-width:3.0897;stroke-linecap:round;stroke-miterlimit:10;}
	.st26{fill:none;stroke:#231F20;stroke-width:5;stroke-linecap:round;stroke-miterlimit:10;}
</style>
<rect x="-151" y="1334" class="st0" width="1447" height="907"/>
<circle class="st1" cx="-152.5" cy="1720.5" r="22.5"/>
<circle id="Ellipse_5" class="st2" cx="26" cy="1732" r="26"/>
<circle id="Ellipse_6" class="st3" cx="97" cy="1732" r="26"/>
<circle id="Ellipse_7" class="st0" cx="168" cy="1732" r="26"/>
<circle id="Ellipse_8" class="st4" cx="239" cy="1732" r="26"/>
<circle id="Ellipse_9" class="st5" cx="310" cy="1732" r="26"/>
<circle id="Ellipse_10" class="st6" cx="381" cy="1732" r="26"/>
<circle id="Ellipse_11" cx="452" cy="1732" r="26"/>
<g>
	<circle id="Ellipse_6_9_" class="st3" cx="2337" cy="1356" r="27"/>
</g>
<g>
	<circle id="Ellipse_6_3_" class="st3" cx="1008.9" cy="1559" r="40.6"/>
</g>
<g>
	<circle id="Ellipse_6_1_" class="st3" cx="1142" cy="1791.7" r="37.3"/>
</g>
<g>
	<circle id="Ellipse_8_3_" class="st7" cx="813.4" cy="1670.4" r="22.6"/>
</g>
<g>
	<g>
		<g>
			<circle id="Ellipse_5_17_" class="st2" cx="572.4" cy="1508.1" r="39.7"/>
		</g>
		<g>
			<circle id="Ellipse_5_16_" class="st2" cx="414.5" cy="1508.1" r="51"/>
		</g>
		<g>
			<circle id="Ellipse_5_8_" class="st2" cx="283.8" cy="1494.3" r="19.8"/>
		</g>
		<g>
			<circle id="Ellipse_5_7_" class="st2" cx="161" cy="1320.2" r="88"/>
		</g>
	</g>
</g>
<rect x="1125" y="1652" class="st8" width="47" height="19"/>
<g>
	<path class="st9" d="M-115.5,1477.9h-71.3c-1.6,0-2.9-1.3-2.9-2.9l0,0c0-1.6,1.3-2.9,2.9-2.9h71.3c1.6,0,2.9,1.3,2.9,2.9l0,0
		C-112.6,1476.6-113.9,1477.9-115.5,1477.9z"/>
</g>
<g>
	<path class="st0" d="M235.6,1279.4H101.3c-3,0-5.5-2.5-5.5-5.5l0,0c0-3,2.5-5.5,5.5-5.5h134.3c3,0,5.5,2.5,5.5,5.5l0,0
		C241.1,1276.9,238.7,1279.4,235.6,1279.4z"/>
</g>
<g>
	<path class="st2" d="M2319.2,1224.8h-109.6c-2.5,0-4.5-2-4.5-4.5v0c0-2.5,2-4.5,4.5-4.5h109.6c2.5,0,4.5,2,4.5,4.5v0
		C2323.7,1222.8,2321.7,1224.8,2319.2,1224.8z"/>
</g>
<g>
	<path class="st2" d="M2284.7,1372.4h-134.3c-3,0-5.5-2.5-5.5-5.5l0,0c0-3,2.5-5.5,5.5-5.5h134.3c3,0,5.5,2.5,5.5,5.5l0,0
		C2290.1,1370,2287.7,1372.4,2284.7,1372.4z"/>
</g>
<g>
	<g>
		<g>
			<circle id="Ellipse_5_15_" class="st2" cx="1103.5" cy="1972.8" r="29.6"/>
		</g>
		<g>
			<circle id="Ellipse_5_14_" class="st2" cx="1163.1" cy="1799.1" r="17.9"/>
		</g>
		<g>
			<circle id="Ellipse_5_13_" class="st2" cx="1334.6" cy="1679.9" r="100.6"/>
		</g>
	</g>
</g>
<g>
	<circle id="Ellipse_5_3_" class="st2" cx="2310.6" cy="1103.2" r="46.1"/>
</g>
<g>
	<g>
		<path class="st10" d="M-180.9,54c-0.4-3.4-0.8-6.6-1.1-9.8c-0.3-2.8,0.4-3.4,3.9-3.4c0.2,0.5,0.6,1.1,0.5,1.7
			c-0.5,4.9,0.8,9.7,1.6,14.5c0.4,2.8,0.2,5.4-1.3,8c-4.1-1-1.5-4.9-3.2-6.9c-5.6,0.7-11.4-2-17.4,0.3c1,1.4,1.8,2.4,2.5,3.6
			c1.6,2.7,1.3,5.3-0.9,7.5c-2.8,2.7-6.3,3.5-9.9,3.9c-3.6,0.4-7.2,0.6-11.8,0.9c1.5,1.3,2.3,2.1,3.2,2.8c1.2,0.9,2.5,1.7,3.7,2.6
			c2.4,2,2.3,4.1-0.4,5.7c-2.4,1.5-5,2.8-7.5,4.3c-2.4,1.4-2.6,2.4-0.7,4.3c0.8,0.8,1.7,1.6,2.7,1.9c5.4,2,11,3.4,16.9,1.9
			c5.4-1.4,8.6-4.8,10.1-10c0.5-1.8,1.3-2.9,3-3.5c1.7-0.6,2.7,0.1,2.9,1.9c0,0.2,0,0.5,0,0.7c-1.3,5.2,0.4,10.2,1,15.2
			c0.2,1.3,0.7,2.6,1.2,3.9c0.7,2,0.3,3.4-1.3,3.9c-2,0.7-3.6-0.1-4-2.2c-0.5-2.3-0.7-4.7-1.1-7c-0.2-1.2-0.5-2.4-0.9-3.9
			c-1,0.5-1.7,0.7-2.2,1.2c-4.4,4.7-10.2,5.1-16,4.9c-3.4-0.1-6.8-1.4-10.2-2.3c-3.8-1-6.5-3.6-8.5-6.9c-1.8-3-1.2-5.5,1.9-7.3
			c1.3-0.7,2.7-1.2,4.1-1.9c0.9-0.4,1.8-0.9,2.6-1.5c0.4-0.3,0.6-0.7,1.2-1.5c-1-0.8-2-1.5-2.9-2.3c-2.2-1.6-4.5-3.2-6.6-4.9
			c-1-0.8-2.1-1.9-1.1-3.2c0.7-0.9,1.8-1.8,2.8-2c1.8-0.3,3.7-0.1,5.6-0.1c3.8,0,7.5,0.1,11.2-0.3c2.3-0.3,4.6-1.2,6.7-2.2
			c1.7-0.8,1.9-2.4,0.6-3.7c-2.2-2.2-4.4-4.3-8.1-3.5c-5,1.1-10.2,1.5-15.2,2.6c-5.1,1.2-10.2,1.4-15.3,1.4
			c-5.3-0.1-10-1.8-14.2-5.2c-4.8-3.9-4.8-10.7-2.7-14.7c1.7-3.3,4.5-4.9,8.1-5.4c4.5-0.6,8.8,0.5,12.8,2.3c4.7,2,9.2,4.4,13.8,6.7
			c4.2,2,8.3,4.2,12.5,6.1c1.3,0.6,2.9,1,4.3,0.9c7-0.9,13.9-1.6,20.9-0.3C-182.4,54.1-181.8,54-180.9,54z M-214.4,55.4
			c-0.4-0.4-0.8-0.8-1.3-1c-6.8-3.5-13.5-7.1-20.3-10.4c-3.4-1.7-7.2-1.9-11-1.4c-3.5,0.5-4.9,1.9-5.7,5.5c-0.7,3.6,0.1,5.6,3.1,7.7
			c4,2.7,8.6,3.2,13.2,3.6c7.4,0.6,14.3-2.1,21.4-3.2C-214.8,56.1-214.7,55.8-214.4,55.4z"/>
		<path class="st10" d="M-178.9,120.7c-1.7,0-2.6-0.9-2.5-2.5c0.1-1.8,1.4-3.2,3-3.1c1.5,0.1,2.6,1.5,2.6,3.1
			C-175.9,119.6-177.2,120.7-178.9,120.7z"/>
		<g>
			<path class="st1" d="M-212,129c-33.6,0-61-27.4-61-61c0-33.6,27.4-61,61-61s61,27.4,61,61c0,18.3-8.1,35.4-22.2,47.1
				c-0.7,0.6-1.7,0.5-2.2-0.2c-0.6-0.7-0.5-1.7,0.2-2.2c13.4-11,21.1-27.3,21.1-44.6c0-31.9-26-57.9-57.9-57.9s-57.9,26-57.9,57.9
				c0,31.9,26,57.9,57.9,57.9c10.8,0,21.3-3,30.5-8.7c0.7-0.5,1.7-0.2,2.2,0.5c0.5,0.7,0.2,1.7-0.5,2.2
				C-189.5,125.8-200.6,129-212,129z"/>
		</g>
	</g>
</g>
<g>
	<polygon class="st5" points="2310.4,1554.4 2265.5,1632.2 2355.3,1632.2 	"/>
</g>
<g>
	<g id="Ellipse_6_13_">
		
			<ellipse transform="matrix(0.9902 -0.1394 0.1394 0.9902 -24.9676 196.6705)" class="st3" cx="1391.1" cy="276.5" rx="26.4" ry="26.4"/>
	</g>
</g>
<g>
	<g id="Ellipse_6_12_">
		
			<ellipse transform="matrix(0.7071 -0.7071 0.7071 0.7071 59.0613 1060.7523)" class="st3" cx="1310" cy="459.1" rx="31.4" ry="31.4"/>
	</g>
</g>
<g>
	<g id="Ellipse_6_11_">
		<circle class="st3" cx="1379.4" cy="466.9" r="15.6"/>
	</g>
</g>
<g>
	<g id="Ellipse_6_14_">
		<path class="st3" d="M1382,371.5c-5.4,1.7-8.4,7.4-6.7,12.8c1.7,5.4,7.4,8.4,12.8,6.7c5.4-1.7,8.4-7.4,6.7-12.8
			C1393.1,372.8,1387.4,369.8,1382,371.5z"/>
	</g>
</g>
<g>
	<g id="Ellipse_6_10_">
		
			<ellipse transform="matrix(0.5639 -0.8258 0.8258 0.5639 -39.3723 1153.5441)" class="st3" cx="1072.6" cy="614.1" rx="39.4" ry="39.4"/>
	</g>
</g>
<g>
	<g id="Ellipse_6_8_">
		
			<ellipse transform="matrix(0.5169 -0.8561 0.8561 0.5169 -277.6996 416.8695)" class="st3" cx="230.5" cy="454.5" rx="40" ry="40"/>
	</g>
</g>
<g>
	<g id="Ellipse_6_6_">
		
			<ellipse transform="matrix(0.8437 -0.5368 0.5368 0.8437 -149.7825 615.6631)" class="st3" cx="982.5" cy="565.1" rx="16.4" ry="16.4"/>
	</g>
</g>
<g>
	<g id="Ellipse_8_17_">
		<ellipse transform="matrix(0.7071 -0.7071 0.7071 0.7071 198.666 973.5389)" class="st7" cx="1274.5" cy="247" rx="43" ry="43"/>
	</g>
</g>
<g>
	<g id="Ellipse_8_16_">
		
			<ellipse transform="matrix(0.7419 -0.6705 0.6705 0.7419 -89.6567 196.8844)" class="st7" cx="210.9" cy="214.9" rx="10.3" ry="10.3"/>
	</g>
</g>
<g>
	<g id="Ellipse_8_15_">
		
			<ellipse transform="matrix(0.1301 -0.9915 0.9915 0.1301 491.0653 1226.5588)" class="st7" cx="944.6" cy="333.4" rx="20.6" ry="20.6"/>
	</g>
</g>
<g>
	<g id="Ellipse_8_14_">
		
			<ellipse transform="matrix(0.8828 -0.4698 0.4698 0.8828 -76.2777 449.3801)" class="st7" cx="862.3" cy="377.5" rx="14.7" ry="14.7"/>
	</g>
</g>
<g>
	<g id="Ellipse_8_13_">
		
			<ellipse transform="matrix(0.9825 -0.1862 0.1862 0.9825 -61.5796 149.6033)" class="st7" cx="765.5" cy="402.6" rx="18.4" ry="18.4"/>
	</g>
</g>
<g>
	<g id="Ellipse_8_12_">
		
			<ellipse transform="matrix(0.4355 -0.9002 0.9002 0.4355 -152.8986 694.7831)" class="st7" cx="477.5" cy="469.3" rx="23.1" ry="23.1"/>
	</g>
</g>
<g>
	<g id="Ellipse_8_8_">
		<path class="st7" d="M843.5,684c-17.2-5.2-35.3,4.5-40.5,21.6c-3,10-1,20.4,4.6,28.3h52.9c2-2.8,3.6-5.9,4.6-9.4
			C870.4,707.4,860.7,689.3,843.5,684z"/>
	</g>
</g>
<g>
	<g id="Ellipse_8_7_">
		
			<ellipse transform="matrix(0.8136 -0.5815 0.5815 0.8136 -102.7966 634.5792)" class="st7" cx="938.2" cy="477.6" rx="39.1" ry="39.1"/>
	</g>
</g>
<g>
	<g id="Ellipse_8_6_">
		
			<ellipse transform="matrix(0.7071 -0.7071 0.7071 0.7071 -175.9531 867.0797)" class="st7" cx="958.7" cy="645.9" rx="31.9" ry="31.9"/>
	</g>
</g>
<g>
	<g id="Ellipse_8_5_">
		<path class="st7" d="M1092.5,723.8c-13.4-10.2-32.6-7.6-42.8,5.8c-1.1,1.4-2,2.9-2.8,4.4h54.2
			C1099.1,730.1,1096.2,726.6,1092.5,723.8z"/>
	</g>
</g>
<g>
	<g id="Ellipse_5_20_">
		<path class="st2" d="M222.8,596.2C166.5,595.1,120,640,119,696.3c-0.2,13.3,2.1,26,6.5,37.7h191c4-10.6,6.3-22.1,6.5-34
			C323.9,643.6,279.1,597.2,222.8,596.2z"/>
	</g>
</g>
<g>
	<g id="Ellipse_5_19_">
		
			<ellipse transform="matrix(0.9742 -0.2259 0.2259 0.9742 -139.4058 35.4557)" class="st2" cx="85.2" cy="626.9" rx="26.7" ry="26.7"/>
	</g>
</g>
<g>
	<g id="Ellipse_5_18_">
		<ellipse transform="matrix(0.7071 -0.7071 0.7071 0.7071 -248.57 194.5632)" class="st2" cx="110.6" cy="397.3" rx="61" ry="61"/>
	</g>
</g>
<g>
	<g id="Ellipse_5_9_">
		
			<ellipse transform="matrix(0.6285 -0.7778 0.7778 0.6285 -106.205 277.121)" class="st2" cx="237" cy="249.7" rx="21.1" ry="21.1"/>
	</g>
</g>
<g>
	<g>
		<polygon class="st9" points="1235.8,734 1243.7,734 1239.8,727.1 		"/>
	</g>
</g>
<g>
	<g>
		<polygon class="st9" points="1194.1,410.1 1238,410.1 1216,372.1 		"/>
	</g>
</g>
<g>
	<g>
		<polygon class="st9" points="404.9,419 454.6,419 429.7,376 		"/>
	</g>
</g>
<g>
	<g>
		<polygon class="st9" points="344.4,469 381.1,469 362.8,437.2 		"/>
	</g>
</g>
<g>
	<g>
		<polygon class="st9" points="117.5,570.6 160,570.6 138.8,533.8 		"/>
	</g>
</g>
<g>
	<g>
		<polygon class="st9" points="63.8,555.1 121.4,555.1 92.6,505.2 		"/>
	</g>
</g>
<g>
	<g>
		<polygon class="st9" points="389.7,528.9 449.6,528.9 419.7,477 		"/>
	</g>
</g>
<g>
	<g>
		<polygon class="st5" points="988.7,410.3 1005.4,410.3 997,395.8 		"/>
	</g>
</g>
<g>
	<g>
		<polygon class="st5" points="524.7,305.3 541.4,305.3 533,290.8 		"/>
	</g>
</g>
<g>
	<g>
		<polygon class="st5" points="758.6,724.9 871.3,724.9 815,627.2 		"/>
	</g>
</g>
<g>
	<g>
		<polygon class="st5" points="692.7,619.9 806.3,619.9 749.5,521.5 		"/>
	</g>
</g>
<g>
	<g>
		<polygon class="st5" points="1297.6,726.3 1409.6,726.3 1353.6,629.3 		"/>
	</g>
</g>
<g>
	<g>
		<polygon class="st5" points="363,665 453,665 408,587.1 		"/>
	</g>
</g>
<g>
	<g>
		<polygon class="st5" points="112.4,315.4 188.3,315.4 150.3,249.7 		"/>
	</g>
</g>
<g>
	<g>
		<polygon class="st5" points="52.5,263.3 129.2,263.3 90.9,196.9 		"/>
	</g>
</g>
<g>
	<g>
		<path class="st3" d="M357.4,560.6H256.7c-2.3,0-4.1,1.8-4.1,4.1s1.8,4.1,4.1,4.1h100.7c2.3,0,4.1-1.8,4.1-4.1
			S359.7,560.6,357.4,560.6z"/>
	</g>
</g>
<g>
	<g>
		<path class="st3" d="M411.4,544.6H310.7c-2.3,0-4.1,1.8-4.1,4.1s1.8,4.1,4.1,4.1h100.7c2.3,0,4.1-1.8,4.1-4.1
			S413.7,544.6,411.4,544.6z"/>
	</g>
</g>
<g>
	<g>
		<path class="st3" d="M141.4,408.8H40.7c-2.3,0-4.1,1.8-4.1,4.1s1.8,4.1,4.1,4.1h100.7c2.3,0,4.1-1.8,4.1-4.1
			S143.7,408.8,141.4,408.8z"/>
	</g>
</g>
<g>
	<g>
		<path class="st3" d="M458.2,266.2H357.4c-2.3,0-4.1,1.8-4.1,4.1s1.8,4.1,4.1,4.1h100.7c2.3,0,4.1-1.8,4.1-4.1
			S460.4,266.2,458.2,266.2z"/>
	</g>
</g>
<g>
	<g>
		<path class="st3" d="M1224.2,282.2h-100.7c-2.3,0-4.1,1.8-4.1,4.1s1.8,4.1,4.1,4.1h100.7c2.3,0,4.1-1.8,4.1-4.1
			S1226.4,282.2,1224.2,282.2z"/>
	</g>
</g>
<g>
	<g>
		<path class="st3" d="M1254.2,321.2h-100.7c-2.3,0-4.1,1.8-4.1,4.1s1.8,4.1,4.1,4.1h100.7c2.3,0,4.1-1.8,4.1-4.1
			S1256.4,321.2,1254.2,321.2z"/>
	</g>
</g>
<g>
	<g>
		<path class="st9" d="M264.4,372.4H130.1c-3,0-5.5,2.5-5.5,5.5s2.5,5.5,5.5,5.5h134.3c3,0,5.5-2.5,5.5-5.5S267.4,372.4,264.4,372.4
			z"/>
	</g>
</g>
<g>
	<g>
		<path class="st0" d="M225.3,427.4H91c-3,0-5.5,2.5-5.5,5.5s2.5,5.5,5.5,5.5h134.3c3,0,5.5-2.5,5.5-5.5S228.4,427.4,225.3,427.4z"
			/>
	</g>
</g>
<g>
	<g>
		<path class="st2" d="M1203.5,299h-134.3c-3,0-5.5,2.5-5.5,5.5c0,3,2.5,5.5,5.5,5.5h134.3c3,0,5.5-2.5,5.5-5.5
			C1209,301.5,1206.5,299,1203.5,299z"/>
	</g>
</g>
<g>
	<g>
		<path class="st2" d="M456.4,240.3H322.1c-3,0-5.5,2.5-5.5,5.5c0,3,2.5,5.5,5.5,5.5h134.3c3,0,5.5-2.5,5.5-5.5
			C461.9,242.7,459.5,240.3,456.4,240.3z"/>
	</g>
</g>
<g>
	<g>
		<path class="st2" d="M374,300.1H239.7c-3,0-5.5,2.5-5.5,5.5s2.5,5.5,5.5,5.5H374c3,0,5.5-2.5,5.5-5.5S377,300.1,374,300.1z"/>
	</g>
</g>
<g>
	<path class="st9" d="M777-98"/>
</g>
<g>
	<g id="Ellipse_5_6_">
		<circle class="st2" cx="1072.2" cy="196.6" r="67.4"/>
	</g>
</g>
<g>
	<g id="Ellipse_5_5_">
		<path class="st2" d="M1329.8,313.1c-8.1-4.4-18.3-1.4-22.7,6.7c-4.4,8.1-1.4,18.3,6.7,22.7s18.3,1.4,22.7-6.7
			C1341,327.6,1337.9,317.5,1329.8,313.1z"/>
	</g>
</g>
<g>
	<g id="Ellipse_5_2_">
		
			<ellipse transform="matrix(0.9963 -8.610451e-02 8.610451e-02 0.9963 -42.5081 119.5443)" class="st2" cx="1364.5" cy="552.5" rx="36.3" ry="36.3"/>
	</g>
</g>
<g>
	<path class="st3" d="M1297.7,583.8L740.2,26.2c-1-1-2.6-1-3.5,0L179.1,583.8c-0.5,0.5-0.7,1.1-0.7,1.8s0.3,1.3,0.7,1.8L325.8,734
		h7.1L184.4,585.5l554-554l554,554L1144,734h7.1l146.7-146.7C1298.7,586.3,1298.7,584.7,1297.7,583.8z"/>
</g>
<g>
	<g>
		<polygon class="st9" points="1133.7,658.8 1201.6,658.8 1167.7,600.1 		"/>
	</g>
</g>
<g>
	<path class="st4" d="M1282.4,677.4c0.1-0.7,0-1.3-0.4-1.9L823.5,34.1c-0.8-1.1-2.4-1.4-3.5-0.6L178.5,492c-1.1,0.8-1.4,2.4-0.6,3.5
		L348.4,734h6.1L183.5,494.6L820.9,39l455.5,637.4l-80.5,57.5h8.6l76.9-54.9C1281.9,678.7,1282.3,678.1,1282.4,677.4z"/>
</g>
<g>
	<g>
		<path class="st3" d="M238.4,656.7H137.6c-2.3,0-4.1,1.8-4.1,4.1s1.8,4.1,4.1,4.1h100.7c2.3,0,4.1-1.8,4.1-4.1
			S240.6,656.7,238.4,656.7z"/>
	</g>
</g>
<g>
	<g>
		<path class="st3" d="M345.4,708.5H244.6c-2.3,0-4.1,1.8-4.1,4.1s1.8,4.1,4.1,4.1h100.7c2.3,0,4.1-1.8,4.1-4.1
			S347.7,708.5,345.4,708.5z"/>
	</g>
</g>
<g>
	<g>
		<path class="st0" d="M345.9,677.1H211.6c-3,0-5.5,2.5-5.5,5.5c0,3,2.5,5.5,5.5,5.5h134.3c3,0,5.5-2.5,5.5-5.5
			C351.4,679.6,349,677.1,345.9,677.1z"/>
	</g>
</g>
<g>
	<g>
		<path class="st0" d="M252.6,728.5H118.3c-3,0-5.5,2.5-5.5,5.5c0,0,0,0,0,0.1h145.3c0,0,0,0,0-0.1
			C258.1,730.9,255.6,728.5,252.6,728.5z"/>
	</g>
</g>
<g>
	<g>
		<polygon class="st5" points="1050.4,554.5 1252.7,554.5 1151.5,379.3 		"/>
	</g>
</g>
<g>
	<g>
		<path class="st2" d="M1188.1,500.9h-134.3c-3,0-5.5,2.5-5.5,5.5c0,3,2.5,5.5,5.5,5.5h134.3c3,0,5.5-2.5,5.5-5.5
			C1193.6,503.4,1191.1,500.9,1188.1,500.9z"/>
	</g>
</g>
<g>
	<g>
		<path class="st2" d="M1256.4,477.9h-134.3c-3,0-5.5,2.5-5.5,5.5c0,3,2.5,5.5,5.5,5.5h134.3c3,0,5.5-2.5,5.5-5.5
			C1261.9,480.4,1259.4,477.9,1256.4,477.9z"/>
	</g>
</g>
<g>
	<defs>
		<rect id="SVGID_1_" y="-1251" width="1440" height="734"/>
	</defs>
	<clipPath id="SVGID_2_">
		<use xlink:href="#SVGID_1_"  style="overflow:visible;"/>
	</clipPath>
	<g class="st11">
		<g>
			<circle id="Ellipse_6_23_" class="st3" cx="1391.1" cy="-974.5" r="26.4"/>
		</g>
		<g>
			<circle id="Ellipse_6_22_" class="st3" cx="1310" cy="-791.9" r="31.4"/>
		</g>
		<g>
			<circle id="Ellipse_6_21_" class="st3" cx="1379.4" cy="-784.1" r="15.6"/>
		</g>
		<g>
			<circle id="Ellipse_6_20_" class="st3" cx="1385" cy="-869.8" r="10.2"/>
		</g>
		<g>
			<circle id="Ellipse_6_19_" class="st3" cx="1072.6" cy="-636.9" r="39.4"/>
		</g>
		<g>
			<circle id="Ellipse_6_18_" class="st3" cx="230.5" cy="-796.5" r="40"/>
		</g>
		<g>
			<circle id="Ellipse_6_17_" class="st3" cx="1291.5" cy="-463.3" r="10.1"/>
		</g>
		<g>
			<circle id="Ellipse_6_16_" class="st3" cx="982.5" cy="-685.9" r="16.4"/>
		</g>
		<g>
			<circle id="Ellipse_6_15_" class="st3" cx="1145.7" cy="-429.1" r="21.9"/>
		</g>
		<g>
			<circle id="Ellipse_8_31_" class="st7" cx="1274.5" cy="-1004" r="43"/>
		</g>
		<g>
			<circle id="Ellipse_8_30_" class="st7" cx="210.9" cy="-1036.1" r="10.3"/>
		</g>
		<g>
			<circle id="Ellipse_8_29_" class="st7" cx="944.6" cy="-917.6" r="20.6"/>
		</g>
		<g>
			<circle id="Ellipse_8_28_" class="st7" cx="862.3" cy="-873.5" r="14.7"/>
		</g>
		<g>
			<circle id="Ellipse_8_27_" class="st7" cx="765.5" cy="-848.4" r="18.4"/>
		</g>
		<g>
			<circle id="Ellipse_8_26_" class="st7" cx="477.5" cy="-781.7" r="23.1"/>
		</g>
		<g>
			<circle id="Ellipse_8_25_" class="st7" cx="253.1" cy="-389.7" r="33.6"/>
		</g>
		<g>
			<circle id="Ellipse_8_24_" class="st7" cx="478" cy="-448.2" r="14.6"/>
		</g>
		<g>
			<circle id="Ellipse_8_23_" class="st7" cx="744.1" cy="-459.7" r="13.2"/>
		</g>
		<g>
			<circle id="Ellipse_8_22_" class="st7" cx="834.1" cy="-535.9" r="32.5"/>
		</g>
		<g>
			<circle id="Ellipse_8_21_" class="st7" cx="938.2" cy="-773.4" r="39.1"/>
		</g>
		<g>
			<circle id="Ellipse_8_20_" class="st7" cx="958.7" cy="-605.1" r="31.9"/>
		</g>
		<g>
			<circle id="Ellipse_8_19_" class="st7" cx="1074" cy="-502.9" r="30.5"/>
		</g>
		<g>
			<circle id="Ellipse_8_18_" class="st7" cx="1399.8" cy="-391.7" r="14.7"/>
		</g>
		<g>
			<circle id="Ellipse_5_24_" class="st2" cx="220.9" cy="-552.9" r="102"/>
		</g>
		<g>
			<circle id="Ellipse_5_23_" class="st2" cx="85.2" cy="-624.1" r="26.7"/>
		</g>
		<g>
			<circle id="Ellipse_5_22_" class="st2" cx="110.6" cy="-853.7" r="61"/>
		</g>
		<g>
			<circle id="Ellipse_5_21_" class="st2" cx="237" cy="-1001.3" r="21.1"/>
		</g>
		<g>
			<polygon class="st9" points="1379.7,-472.1 1361.5,-440.6 1397.9,-440.6 			"/>
		</g>
		<g>
			<polygon class="st9" points="1321.6,-429.8 1289.3,-373.7 1354,-373.7 			"/>
		</g>
		<g>
			<polygon class="st9" points="1239.8,-523.9 1221.4,-492.1 1258.1,-492.1 			"/>
		</g>
		<g>
			<polygon class="st9" points="1216,-878.9 1194.1,-840.9 1238,-840.9 			"/>
		</g>
		<g>
			<polygon class="st9" points="429.7,-875 404.9,-832 454.6,-832 			"/>
		</g>
		<g>
			<polygon class="st9" points="362.8,-813.8 344.4,-782 381.1,-782 			"/>
		</g>
		<g>
			<polygon class="st9" points="138.8,-717.2 117.5,-680.4 160,-680.4 			"/>
		</g>
		<g>
			<polygon class="st9" points="92.6,-745.8 63.8,-695.9 121.4,-695.9 			"/>
		</g>
		<g>
			<polygon class="st9" points="419.7,-774 389.7,-722.1 449.6,-722.1 			"/>
		</g>
		<g>
			<polygon class="st5" points="1215.1,-469.2 1168.8,-388.9 1261.5,-388.9 			"/>
		</g>
		<g>
			<polygon class="st5" points="1119.9,-382.7 1109.4,-364.5 1130.5,-364.5 			"/>
		</g>
		<g>
			<polygon class="st5" points="997,-855.2 988.7,-840.7 1005.4,-840.7 			"/>
		</g>
		<g>
			<polygon class="st5" points="533,-960.2 524.7,-945.7 541.4,-945.7 			"/>
		</g>
		<g>
			<polygon class="st5" points="815,-623.8 758.6,-526.1 871.3,-526.1 			"/>
		</g>
		<g>
			<polygon class="st5" points="749.5,-729.5 692.7,-631.1 806.3,-631.1 			"/>
		</g>
		<g>
			<polygon class="st5" points="1353.6,-621.7 1297.6,-524.7 1409.6,-524.7 			"/>
		</g>
		<g>
			<polygon class="st5" points="573.4,-456.1 542,-401.7 604.8,-401.7 			"/>
		</g>
		<g>
			<polygon class="st5" points="408,-663.9 363,-586 453,-586 			"/>
		</g>
		<g>
			<polygon class="st5" points="71.3,-472 41.7,-420.8 100.8,-420.8 			"/>
		</g>
		<g>
			<polygon class="st5" points="150.3,-1001.3 112.4,-935.6 188.3,-935.6 			"/>
		</g>
		<g>
			<polygon class="st5" points="90.9,-1054.1 52.5,-987.7 129.2,-987.7 			"/>
		</g>
		<g>
			<path class="st3" d="M357.4-682.2H256.7c-2.3,0-4.1-1.8-4.1-4.1l0,0c0-2.3,1.8-4.1,4.1-4.1h100.7c2.3,0,4.1,1.8,4.1,4.1l0,0
				C361.5-684,359.7-682.2,357.4-682.2z"/>
		</g>
		<g>
			<path class="st3" d="M411.4-698.2H310.7c-2.3,0-4.1-1.8-4.1-4.1l0,0c0-2.3,1.8-4.1,4.1-4.1h100.7c2.3,0,4.1,1.8,4.1,4.1l0,0
				C415.5-700,413.7-698.2,411.4-698.2z"/>
		</g>
		<g>
			<path class="st3" d="M141.4-834H40.7c-2.3,0-4.1-1.8-4.1-4.1l0,0c0-2.3,1.8-4.1,4.1-4.1h100.7c2.3,0,4.1,1.8,4.1,4.1l0,0
				C145.5-835.8,143.7-834,141.4-834z"/>
		</g>
		<g>
			<path class="st3" d="M458.2-976.6H357.4c-2.3,0-4.1-1.8-4.1-4.1l0,0c0-2.3,1.8-4.1,4.1-4.1h100.7c2.3,0,4.1,1.8,4.1,4.1l0,0
				C462.3-978.5,460.4-976.6,458.2-976.6z"/>
		</g>
		<g>
			<path class="st3" d="M1224.2-960.6h-100.7c-2.3,0-4.1-1.8-4.1-4.1l0,0c0-2.3,1.8-4.1,4.1-4.1h100.7c2.3,0,4.1,1.8,4.1,4.1l0,0
				C1228.3-962.5,1226.4-960.6,1224.2-960.6z"/>
		</g>
		<g>
			<path class="st3" d="M1254.2-921.6h-100.7c-2.3,0-4.1-1.8-4.1-4.1l0,0c0-2.3,1.8-4.1,4.1-4.1h100.7c2.3,0,4.1,1.8,4.1,4.1l0,0
				C1258.3-923.5,1256.4-921.6,1254.2-921.6z"/>
		</g>
		<g>
			<path class="st9" d="M159.5-407.1H88.2c-1.6,0-2.9-1.3-2.9-2.9v0c0-1.6,1.3-2.9,2.9-2.9h71.3c1.6,0,2.9,1.3,2.9,2.9v0
				C162.4-408.4,161.1-407.1,159.5-407.1z"/>
		</g>
		<g>
			<path class="st9" d="M189.5-419.1h-71.3c-1.6,0-2.9-1.3-2.9-2.9v0c0-1.6,1.3-2.9,2.9-2.9h71.3c1.6,0,2.9,1.3,2.9,2.9v0
				C192.4-420.4,191.1-419.1,189.5-419.1z"/>
		</g>
		<g>
			<path class="st9" d="M264.4-867.7H130.1c-3,0-5.5-2.5-5.5-5.5l0,0c0-3,2.5-5.5,5.5-5.5h134.3c3,0,5.5,2.5,5.5,5.5l0,0
				C269.9-870.1,267.4-867.7,264.4-867.7z"/>
		</g>
		<g>
			<path class="st0" d="M225.3-812.7H91c-3,0-5.5-2.5-5.5-5.5l0,0c0-3,2.5-5.5,5.5-5.5h134.3c3,0,5.5,2.5,5.5,5.5l0,0
				C230.8-815.1,228.4-812.7,225.3-812.7z"/>
		</g>
		<g>
			<path class="st0" d="M639.8-460.8H505.5c-3,0-5.5-2.5-5.5-5.5l0,0c0-3,2.5-5.5,5.5-5.5h134.3c3,0,5.5,2.5,5.5,5.5l0,0
				C645.3-463.2,642.8-460.8,639.8-460.8z"/>
		</g>
		<g>
			<path class="st2" d="M1203.5-941h-134.3c-3,0-5.5-2.5-5.5-5.5l0,0c0-3,2.5-5.5,5.5-5.5h134.3c3,0,5.5,2.5,5.5,5.5l0,0
				C1209-943.5,1206.5-941,1203.5-941z"/>
		</g>
		<g>
			<path class="st2" d="M456.4-999.8H322.1c-3,0-5.5-2.5-5.5-5.5v0c0-3,2.5-5.5,5.5-5.5h134.3c3,0,5.5,2.5,5.5,5.5v0
				C461.9-1002.2,459.5-999.8,456.4-999.8z"/>
		</g>
		<g>
			<path class="st2" d="M374-940H239.7c-3,0-5.5-2.5-5.5-5.5l0,0c0-3,2.5-5.5,5.5-5.5H374c3,0,5.5,2.5,5.5,5.5l0,0
				C379.5-942.4,377-940,374-940z"/>
		</g>
		<path class="st9" d="M777-1349"/>
		<g>
			<circle id="Ellipse_5_12_" class="st2" cx="1072.2" cy="-1054.4" r="67.4"/>
		</g>
		<g>
			<circle id="Ellipse_5_11_" class="st2" cx="1321.8" cy="-923.2" r="16.7"/>
		</g>
		<g>
			<circle id="Ellipse_5_10_" class="st2" cx="1364.5" cy="-698.5" r="36.3"/>
		</g>
		
			<rect x="344.2" y="-1059.7" transform="matrix(0.7071 0.7071 -0.7071 0.7071 -254.2775 -717.0642)" class="st12" width="788.5" height="788.5"/>
		<g>
			<polygon class="st9" points="1167.7,-650.9 1133.7,-592.2 1201.6,-592.2 			"/>
		</g>
		
			<rect x="335.7" y="-1059.7" transform="matrix(0.5815 0.8136 -0.8136 0.5815 -235.8901 -872.4154)" class="st13" width="788.5" height="788.5"/>
		<g>
			<path class="st3" d="M256-492.1H155.3c-2.3,0-4.1-1.8-4.1-4.1l0,0c0-2.3,1.8-4.1,4.1-4.1H256c2.3,0,4.1,1.8,4.1,4.1l0,0
				C260.1-493.9,258.3-492.1,256-492.1z"/>
		</g>
		<g>
			<path class="st3" d="M172-431.1H71.3c-2.3,0-4.1-1.8-4.1-4.1l0,0c0-2.3,1.8-4.1,4.1-4.1H172c2.3,0,4.1,1.8,4.1,4.1l0,0
				C176.1-432.9,174.3-431.1,172-431.1z"/>
		</g>
		<g>
			<path class="st3" d="M238.4-586.1H137.6c-2.3,0-4.1-1.8-4.1-4.1l0,0c0-2.3,1.8-4.1,4.1-4.1h100.7c2.3,0,4.1,1.8,4.1,4.1l0,0
				C242.5-587.9,240.6-586.1,238.4-586.1z"/>
		</g>
		<g>
			<path class="st3" d="M345.4-534.3H244.6c-2.3,0-4.1-1.8-4.1-4.1v0c0-2.3,1.8-4.1,4.1-4.1h100.7c2.3,0,4.1,1.8,4.1,4.1v0
				C349.5-536.1,347.7-534.3,345.4-534.3z"/>
		</g>
		<g>
			<path class="st0" d="M345.9-562.9H211.6c-3,0-5.5-2.5-5.5-5.5l0,0c0-3,2.5-5.5,5.5-5.5h134.3c3,0,5.5,2.5,5.5,5.5l0,0
				C351.4-565.4,349-562.9,345.9-562.9z"/>
		</g>
		<g>
			<path class="st0" d="M252.6-511.6H118.3c-3,0-5.5-2.5-5.5-5.5l0,0c0-3,2.5-5.5,5.5-5.5h134.3c3,0,5.5,2.5,5.5,5.5l0,0
				C258.1-514,255.6-511.6,252.6-511.6z"/>
		</g>
		<g>
			<polygon class="st5" points="1151.5,-871.7 1050.4,-696.5 1252.7,-696.5 			"/>
		</g>
		<g>
			<path class="st2" d="M1188.1-739.1h-134.3c-3,0-5.5-2.5-5.5-5.5v0c0-3,2.5-5.5,5.5-5.5h134.3c3,0,5.5,2.5,5.5,5.5v0
				C1193.6-741.6,1191.1-739.1,1188.1-739.1z"/>
		</g>
		<g>
			<path class="st2" d="M1256.4-762.1h-134.3c-3,0-5.5-2.5-5.5-5.5l0,0c0-3,2.5-5.5,5.5-5.5h134.3c3,0,5.5,2.5,5.5,5.5l0,0
				C1261.9-764.6,1259.4-762.1,1256.4-762.1z"/>
		</g>
	</g>
</g>
<g id="avatar">
	<path class="st14" d="M653.4,289.8l9.5,121.3c0,0,107.3,91.3,145.2-19.8c24.2-70.9-6.9-80.4-6.9-80.4L653.4,289.8z"/>
	<path class="st9" d="M1017.3,726.6v-22.3c0,0-10.1-143.7-63.3-232.5c-53.3-88.8-148.2-83.4-148.2-83.4
		c-9.9,25.9-48.9,53.3-48.9,53.3l-65.4-34l-95.1-11.9c-117.8,20.9-173.8,330.7-173.8,330.7"/>
	<g>
		<defs>
			<path id="SVGID_3_" d="M598.4,395c-117.8,20.9-175.8,330.4-175.8,330.4v5.5h594.7v-27.8c0,0-10-140.8-63.2-229.6
				c-53.3-88.8-148.2-86.2-148.2-86.2c-5.2,23.9-48.8,54.9-48.8,54.9l-65.2-34.1L598.4,395z"/>
		</defs>
		<clipPath id="SVGID_4_">
			<use xlink:href="#SVGID_3_"  style="overflow:visible;"/>
		</clipPath>
		<g class="st15">
			<g>
				<polygon class="st16" points="559.1,477.9 539.1,435.8 559.1,393.6 579.1,435.8 				"/>
				<polygon class="st16" points="559.1,562.3 539.1,520.1 559.1,477.9 579.1,520.1 				"/>
				<polygon class="st16" points="559.1,646.6 539.1,604.4 559.1,562.3 579.1,604.4 				"/>
				<polygon class="st16" points="559.1,730.9 539.1,688.7 559.1,646.6 579.1,688.7 				"/>
				<polygon class="st16" points="519.1,477.9 499.1,435.8 519.1,393.6 539.1,435.8 				"/>
				<polygon class="st16" points="519.1,562.3 499.1,520.1 519.1,477.9 539.1,520.1 				"/>
				<polygon class="st16" points="519.1,646.6 499.1,604.4 519.1,562.3 539.1,604.4 				"/>
				<polygon class="st16" points="519.1,730.9 499.1,688.7 519.1,646.6 539.1,688.7 				"/>
				<polygon class="st16" points="479.1,477.9 459.1,435.8 479.1,393.6 499.1,435.8 				"/>
				<polygon class="st16" points="479.1,562.3 459.1,520.1 479.1,477.9 499.1,520.1 				"/>
				<polygon class="st16" points="479.1,646.6 459.1,604.4 479.1,562.3 499.1,604.4 				"/>
				<polygon class="st16" points="479.1,730.9 459.1,688.7 479.1,646.6 499.1,688.7 				"/>
				<polygon class="st16" points="439.1,477.9 419.1,435.8 439.1,393.6 459.1,435.8 				"/>
				<polygon class="st16" points="439.1,562.3 419.1,520.1 439.1,477.9 459.1,520.1 				"/>
				<polygon class="st16" points="439.1,646.6 419.1,604.4 439.1,562.3 459.1,604.4 				"/>
				<polygon class="st16" points="439.1,730.9 419.1,688.7 439.1,646.6 459.1,688.7 				"/>
			</g>
			<g>
				<polygon class="st16" points="719.1,477.9 699.1,435.8 719.1,393.6 739.1,435.8 				"/>
				<polygon class="st16" points="719.1,562.3 699.1,520.1 719.1,477.9 739.1,520.1 				"/>
				<polygon class="st16" points="719.1,646.6 699.1,604.4 719.1,562.3 739.1,604.4 				"/>
				<polygon class="st16" points="719.1,730.9 699.1,688.7 719.1,646.6 739.1,688.7 				"/>
				<polygon class="st16" points="679.1,477.9 659.1,435.8 679.1,393.6 699.1,435.8 				"/>
				<polygon class="st16" points="679.1,562.3 659.1,520.1 679.1,477.9 699.1,520.1 				"/>
				<polygon class="st16" points="679.1,646.6 659.1,604.4 679.1,562.3 699.1,604.4 				"/>
				<polygon class="st16" points="679.1,730.9 659.1,688.7 679.1,646.6 699.1,688.7 				"/>
				<polygon class="st16" points="639.1,477.9 619.1,435.8 639.1,393.6 659.1,435.8 				"/>
				<polygon class="st16" points="639.1,562.3 619.1,520.1 639.1,477.9 659.1,520.1 				"/>
				<polygon class="st16" points="639.1,646.6 619.1,604.4 639.1,562.3 659.1,604.4 				"/>
				<polygon class="st16" points="639.1,730.9 619.1,688.7 639.1,646.6 659.1,688.7 				"/>
				<polygon class="st16" points="599.1,477.9 579.1,435.8 599.1,393.6 619.1,435.8 				"/>
				<polygon class="st16" points="599.1,562.3 579.1,520.1 599.1,477.9 619.1,520.1 				"/>
				<polygon class="st16" points="599.1,646.6 579.1,604.4 599.1,562.3 619.1,604.4 				"/>
				<polygon class="st16" points="599.1,730.9 579.1,688.7 599.1,646.6 619.1,688.7 				"/>
			</g>
			<g>
				<polygon class="st16" points="879.1,477.9 859.1,435.8 879.1,393.6 899.1,435.8 				"/>
				<polygon class="st16" points="879.1,562.3 859.1,520.1 879.1,477.9 899.1,520.1 				"/>
				<polygon class="st16" points="879.1,646.6 859.1,604.4 879.1,562.3 899.1,604.4 				"/>
				<polygon class="st16" points="879.1,730.9 859.1,688.7 879.1,646.6 899.1,688.7 				"/>
				<polygon class="st16" points="839.1,477.9 819.1,435.8 839.1,393.6 859.1,435.8 				"/>
				<polygon class="st16" points="839.1,562.3 819.1,520.1 839.1,477.9 859.1,520.1 				"/>
				<polygon class="st16" points="839.1,646.6 819.1,604.4 839.1,562.3 859.1,604.4 				"/>
				<polygon class="st16" points="839.1,730.9 819.1,688.7 839.1,646.6 859.1,688.7 				"/>
				<polygon class="st16" points="799.1,477.9 779.1,435.8 799.1,393.6 819.1,435.8 				"/>
				<polygon class="st16" points="799.1,562.3 779.1,520.1 799.1,477.9 819.1,520.1 				"/>
				<polygon class="st16" points="799.1,646.6 779.1,604.4 799.1,562.3 819.1,604.4 				"/>
				<polygon class="st16" points="799.1,730.9 779.1,688.7 799.1,646.6 819.1,688.7 				"/>
				<polygon class="st16" points="759.1,477.9 739.1,435.8 759.1,393.6 779.1,435.8 				"/>
				<polygon class="st16" points="759.1,562.3 739.1,520.1 759.1,477.9 779.1,520.1 				"/>
				<polygon class="st16" points="759.1,646.6 739.1,604.4 759.1,562.3 779.1,604.4 				"/>
				<polygon class="st16" points="759.1,730.9 739.1,688.7 759.1,646.6 779.1,688.7 				"/>
			</g>
			<g>
				<polygon class="st16" points="1039.1,477.9 1019.1,435.8 1039.1,393.6 1059.1,435.8 				"/>
				<polygon class="st16" points="1039.1,562.3 1019.1,520.1 1039.1,477.9 1059.1,520.1 				"/>
				<polygon class="st16" points="1039.1,646.6 1019.1,604.4 1039.1,562.3 1059.1,604.4 				"/>
				<polygon class="st16" points="1039.1,730.9 1019.1,688.7 1039.1,646.6 1059.1,688.7 				"/>
				<polygon class="st16" points="999.1,477.9 979.1,435.8 999.1,393.6 1019.1,435.8 				"/>
				<polygon class="st16" points="999.1,562.3 979.1,520.1 999.1,477.9 1019.1,520.1 				"/>
				<polygon class="st16" points="999.1,646.6 979.1,604.4 999.1,562.3 1019.1,604.4 				"/>
				<polygon class="st16" points="999.1,730.9 979.1,688.7 999.1,646.6 1019.1,688.7 				"/>
				<polygon class="st16" points="959.1,477.9 939.1,435.8 959.1,393.6 979.1,435.8 				"/>
				<polygon class="st16" points="959.1,562.3 939.1,520.1 959.1,477.9 979.1,520.1 				"/>
				<polygon class="st16" points="959.1,646.6 939.1,604.4 959.1,562.3 979.1,604.4 				"/>
				<polygon class="st16" points="959.1,730.9 939.1,688.7 959.1,646.6 979.1,688.7 				"/>
				<polygon class="st16" points="919.1,477.9 899.1,435.8 919.1,393.6 939.1,435.8 				"/>
				<polygon class="st16" points="919.1,562.3 899.1,520.1 919.1,477.9 939.1,520.1 				"/>
				<polygon class="st16" points="919.1,646.6 899.1,604.4 919.1,562.3 939.1,604.4 				"/>
				<polygon class="st16" points="919.1,730.9 899.1,688.7 919.1,646.6 939.1,688.7 				"/>
			</g>
		</g>
	</g>
	<path class="st17" d="M482.2,294.7"/>
	<path class="st18" d="M675,399.6"/>
	<g>
		<g>
			<path class="st1" d="M1019.8,726c0-7.7,0.5-15.6-0.1-23.3c-0.5-7.4-1.4-14.7-2.2-22c-4-33.8-10-67.5-18.5-100.5
				c-5.3-20.5-11.5-40.8-19.2-60.5c-7.7-19.6-16.7-39-28.5-56.6c-21-31.4-51.8-54.8-87.6-66.8c-12-4-24.4-6.7-36.9-8.2
				c-6.5-0.8-13.1-1.3-19.7-1c-0.3,0-0.6,0-0.9,0c-1,0.1-2.4,0.5-2.8,1.5c-5.6,14.2-17.1,26-28.2,36.2c-6.4,5.8-13.1,11.4-20.2,16.4
				c1.3-0.2,2.6-0.4,3.9-0.6c-16.2-8.4-32.5-16.9-48.7-25.3c-4-2.1-8-4.2-12-6.2c-1.6-0.8-3.2-2-4.9-2.5c-1.5-0.5-3.3-0.5-4.8-0.6
				c-3.7-0.5-7.4-0.9-11.1-1.4c-22.2-2.8-44.4-5.5-66.7-8.3c-5.1-0.6-10.9-2.3-16.1-1.3c-8.9,1.8-17.5,5.2-25.5,9.7
				c-17.8,10-32.3,25.2-44.5,41.3c-14.3,19-26,39.9-36.2,61.3c-11,22.9-20.3,46.6-28.6,70.6c-7.7,22.3-14.6,45-20.8,67.8
				c-4.8,17.6-9.1,35.3-13.1,53c-2,8.9-3.9,17.9-5.6,26.9c-0.1,0.4-0.2,0.8-0.2,1.2c-0.3,1.8,4.6,1.1,4.8-0.5
				c1.1-6.1,2.4-12.1,3.6-18.2c3.3-15.7,7-31.4,11-46.9c5.5-21.5,11.6-42.8,18.4-64c7.6-23.7,16.1-47.1,25.9-69.9
				c9.6-22.4,20.6-44.4,33.8-65c11.5-17.7,24.8-34.8,41.6-47.8c7.1-5.5,14.9-10.3,23.4-13.6c4.1-1.6,8.3-2.7,12.6-3.7
				c1.4-0.3,0-0.1,0.1-0.1c0.2,0,0.4,0,0.6,0.1c0.9,0.2,1.9,0.2,2.9,0.4c20.5,2.6,41,5.1,61.5,7.7c8.7,1.1,17.5,2.2,26.2,3.3
				c0.9,0.1,1.9,0.3,2.9,0.4c1.4,0.1,0.4,0.4,0-0.1c1,1.2,4,2.1,5.4,2.8c18.5,9.6,36.9,19.2,55.4,28.8c1.5,0.8,3,1.6,4.6,2.4
				c1.2,0.6,2.9,0,3.9-0.6c7.5-5.3,14.6-11.2,21.3-17.4c11.1-10.3,22.5-22.1,28.1-36.5c-0.9,0.5-1.9,1-2.8,1.5c0.3,0,0.6-0.1,0.9,0
				c-0.9-0.1,0.3,0,0.6,0c0.6,0,1.1,0,1.7,0c3.3,0,6.5,0.2,9.8,0.4c11.3,0.9,22.5,2.9,33.4,6c34.5,9.6,65.2,29.9,87.3,58.2
				c13.2,16.9,23.1,36.3,31.5,56c8.2,19.3,14.8,39.2,20.4,59.4c9.5,34.2,16.1,69.2,20.6,104.4c1.2,9,2.2,18.1,3,27.2
				c0.6,6.8,0.3,13.6,0.3,20.3c0,1.8,0,3.7,0,5.5C1014.9,728.6,1019.8,727.8,1019.8,726L1019.8,726z"/>
		</g>
	</g>
	<path class="st19" d="M602.9,506.6c3.7,14.8,8,29.4,13.1,44.1c11.3,33,31.8,58.7,62.2,76.3c27.5,15.9,66.8-20.2,81.2-42.5
		c-1.8,2.7-22.5,9.9-26.1,11.5c-42.3,18.4-57-24.3-59.1-57.8c-1.2-19.5-3.5-37.4-6.9-55.9c-4.2-22.3-1.2-41.6,2.3-63.9
		c2-12.5,7.6-24.2,9.8-36.7c2.3-12.8,2.6-25.8,2-38.8c-0.5-10.5-1.4-21-2.7-31.4c-1-7.9,1.3-16.2-3.1-23.4c-2.1-3.4-4-6.9-5.7-10.5
		c-6.1-13.3-10.2-27.5-13.8-41.6c-3.4-13.2-5.8-54.1-2.1-68.3c0,0,21.6-17.4,54-42.2c0,0,65,36.5,115.6,14.2
		c0,0,14.1,83.6,4.9,115.4s-38.5,77.3-38.5,77.3c-11.2,7.2,1.7,49.9,5.1,58.9c7.7,20.6,24.3,35.3,38.9,50.9
		c12.4,13.3,20.8,28.7,27.2,45.6c10.7,28.5,29.4,57.4,27.2,89c-2.3,32.4-44.6,38.3-66.7,19c13.3,11.6,28.4,29,48,25.3
		c40.3-7.6,56.4-69.6,53.3-104.8c-2.4-27.2-7.3-55.1-19.1-79.9c-10.8-22.6-33-37.2-40.2-61.5c-6.4-21.5-5.8-42.6-4.8-64.8
		c0.9-19.2,8.1-38.9,6.5-58.1c-1.3-15.7,1.3-30.1,0.6-45.9c-0.7-17.3-1-34.8-5-51.7c-3.5-14.9-11.7-26.5-17.3-40.2
		c-12.3-30.6-27.8-56.9-55.3-76.3c-52.5-36.9-110-0.9-110-0.9c-15.8-3.2-43.4,12.3-54.6,22.1c-18,15.8-27.4,37.2-31,60.6
		c-3.4,22.9-7.9,45-10.2,68.3c-1.6,16.2,1.7,36.5,2.3,53.4c0.5,13.3-0.3,27.5-0.9,41.1C580.7,358.3,584.1,432.7,602.9,506.6z"/>
	<path class="st20" d="M837.1,185.2c6.4-4.4,18.8,7.8,9.8,36c-9,28.2-19.5,27.5-19.9,29.7"/>
	<path class="st14" d="M842.9,207.9c0,20.6-3.1,52.4-18.8,84.5c-6.3,12.9-9.6,16.1-18.2,27.7c-22.7,30.4-33.6,32.6-56.9,28.2
		c-37.4-7-66.8-22.5-82-52.7c-10.5-20.9-20.5-61.8-20.5-88.9c0-77.7,42.6-140.7,99.9-140.7C803.6,65.9,842.9,130.2,842.9,207.9z"/>
	<path class="st1" d="M710.4,192.6c0,4.6-2.3,8.4-5.1,8.4c-2.8,0-5.1-3.7-5.1-8.4c0-4.6,2.3-8.4,5.1-8.4
		C708.1,184.3,710.4,188,710.4,192.6z"/>
	<path class="st1" d="M814.1,189.4c0,4.6-2.3,8.4-5.1,8.4c-2.8,0-5.1-3.7-5.1-8.4s2.3-8.4,5.1-8.4
		C811.8,181.1,814.1,184.8,814.1,189.4z"/>
	<g>
		<path class="st1" d="M678.2,162.1c2.7-0.9,5.3-2.1,7.7-3.6c2.5-1.4,4.9-3,7.4-4.4c2.6-1.4,5.3-2.6,8.3-3.4
			c2.9-0.7,5.8-1.2,8.7-1.5c3-0.3,5.9-0.5,9-0.4c3,0.1,6.1,0.7,9,1.8c2.9,1.1,5.6,2.6,7.9,4.6c2.3,2,4.3,4.3,5.7,7l-0.4,0.3
			c-2.4-1.7-4.8-3.1-7.2-4.4c-2.4-1.2-5-2.1-7.6-2.8c-2.6-0.7-5.2-1.2-7.9-1.6c-2.7-0.4-5.5-0.6-8.2-0.5c-2.8,0.1-5.6,0.4-8.3,0.8
			c-2.7,0.4-5.3,1.3-7.9,2.4c-5.2,2.1-10.3,5.2-16.1,6.2L678.2,162.1z"/>
	</g>
	<g>
		<path class="st1" d="M824.4,157.8c-3-4-7.4-6.9-11.9-8.6c-1.1-0.5-2.3-0.8-3.5-1.2c-1.2-0.3-2.4-0.5-3.6-0.8
			c-0.6-0.2-1.2-0.2-1.8-0.3l-1.8-0.2c-0.6,0-1.2-0.2-1.8-0.1l-1.8,0l-1.8,0l-0.9,0l-0.9,0.1l-3.6,0.5l-0.9,0.1
			c-0.3,0-0.6,0.1-0.9,0.2c-0.6,0.1-1.2,0.2-1.8,0.3c-1.2,0.2-2.4,0.3-3.6,0.5c-2.4,0.5-4.9,0.8-7.4,1.2c-2.5,0.5-5,0.9-7.6,1.1
			l-0.2-0.5c2.2-1.5,4.5-2.8,6.8-3.9c2.4-1.1,4.9-1.9,7.4-2.7c1.3-0.3,2.6-0.5,3.9-0.8c1.3-0.2,2.6-0.5,3.9-0.4l4,0l1,0l1,0.1l2,0.2
			l2,0.2c0.7,0,1.3,0.2,2,0.3l2,0.4c0.7,0.1,1.3,0.2,1.9,0.5c1.3,0.4,2.5,0.8,3.8,1.2c1.2,0.6,2.4,1,3.6,1.7
			c2.3,1.3,4.5,2.7,6.4,4.6c1.9,1.8,3.6,3.8,4.9,6.1L824.4,157.8z"/>
	</g>
	<g>
		<path class="st1" d="M801.2,274.8c-5.6,3.7-11.8,6.4-18.3,8.2c-3.2,0.9-6.5,1.6-9.8,2.2c-3.3,0.6-6.7,0.9-10,1.1
			c-3.4,0.2-6.7,0.2-10.1-0.1c-3.3-0.2-6.7-0.6-10-1c-3.3-0.5-6.6-1.1-9.9-1.9c-1.6-0.4-3.2-0.9-4.8-1.4c-1.6-0.5-3.2-1.1-4.7-1.8
			c3.2,1,6.5,1.6,9.7,2.1c3.3,0.5,6.6,0.9,9.9,1.2c3.3,0.3,6.6,0.5,9.9,0.8c3.3,0.2,6.6,0.2,9.9,0.1c6.6-0.3,13.1-1.2,19.6-2.7
			C788.9,280,795.2,277.9,801.2,274.8z"/>
	</g>
	<path class="st21" d="M635.8,205.9c0,0,11.4-2.5,27.1-19.1c14.9-15.7,31.9-51.3,50.3-69.4c0,0,8.6,2.2,35.7,12.5
		c24.4,9.3,69.6,36.8,102.2,29.5c0,0-19.5-88.3-65.5-104.4C679.7,18.1,633.6,136.3,635.8,205.9z"/>
	<g>
		<path class="st1" d="M748.9,171.8c1,1.8,1.5,3.8,1.9,5.7c0.4,2,0.8,3.9,1.1,5.9c0.6,4,1,8,1.3,12c0.3,4,0.5,8,0.5,12
			c0,2,0,4-0.2,6.1l-0.8,5.9c-1,7.9-2.4,15.8-2.3,23.5c0.1,1.9,0.3,3.8,0.9,5.4c0.3,0.8,0.7,1.4,1.4,2.3c0.6,0.8,1.2,1.5,1.8,2.2
			c0.6,0.7,1.3,1.3,2,1.6c0.7,0.3,1.5,0.3,2.5,0.1c1-0.2,2.1-0.3,3.1-0.2c1,0.1,2,0.3,3,0.7c-1-0.1-2-0.1-3,0
			c-1,0.1-1.9,0.4-2.8,0.7c-0.5,0.2-1,0.3-1.6,0.4c-0.6,0.1-1.2,0.1-1.8-0.1c-1.2-0.4-2.1-1.1-2.9-1.7c-0.8-0.7-1.5-1.5-2.2-2.2
			l-0.5-0.6l-0.3-0.3l-0.3-0.4c-0.4-0.5-0.6-1-0.9-1.5c-0.9-2.1-1.2-4.2-1.3-6.3c-0.3-4.1,0.1-8.2,0.5-12.2c0.4-4,1-8,1.6-11.9
			l0.8-5.9c0.3-1.8,0.3-3.8,0.4-5.8c0.1-4,0.1-7.9,0-11.9c-0.1-4-0.2-8-0.4-11.9c-0.1-2-0.3-4-0.5-5.9c-0.1-1-0.2-2-0.4-2.9
			C749.5,173.7,749.3,172.7,748.9,171.8z"/>
	</g>
	<path class="st22" d="M649.9,201.2c-8.2-4.6-26.7,7.9-15.1,37.6c11.6,29.7,27.6,29.2,28.1,31.5"/>
	<path class="st23" d="M719.9,245.6c-1.1,7.2-10.9,11.7-21.7,10c-10.9-1.7-18.7-9-17.6-16.2c1.1-7.2,10.9-11.7,21.7-10
		C713.2,231.1,721.1,238.4,719.9,245.6z"/>
	<path class="st23" d="M831.9,232.9c1,7.3-6.2,14.2-16,15.5c-9.8,1.3-18.6-3.5-19.6-10.7c-1-7.3,6.2-14.2,16-15.5
		C822.2,220.8,830.9,225.6,831.9,232.9z"/>
	<path class="st24" d="M667.6,148"/>
	<path class="st1" d="M651.3,222.1c-0.8-1-2.2-1.3-3.8-0.4c-2.2,1.4-2.9,4.7-2.7,7.2c0.2,1.7,1,3.6,2.1,4.8c4.7,5.5,6.1,8.8,6.1,8.8
		c-1-2-1.8-4-2.5-6.1c-0.6-1.8-2.8-6.6-0.2-7.9C652.5,227.4,652.8,223.9,651.3,222.1z"/>
	<line class="st25" x1="640.1" y1="115.4" x2="680.5" y2="144.5"/>
	<line class="st25" x1="633.2" y1="122.3" x2="673.6" y2="151.4"/>
	<g>
		<path class="st1" d="M730.5,289.8c5.8,1.8,11.1,4.9,16.4,7.5c5.3,2.6,10.9,4.7,16.5,4.5c1.4,0,2.8-0.2,4.2-0.5
			c1.4-0.3,2.7-0.7,4-1.3c2.6-1.1,5-2.7,7.3-4.6c2.2-1.9,4.3-4,6.4-6.2c2.1-2.1,4.2-4.4,6.9-5.9c-2.3,2-4,4.4-5.8,6.8
			c-1.8,2.4-3.7,4.8-6,6.9c-2.2,2.2-4.8,4.1-7.6,5.4c-2.9,1.4-6.1,2.1-9.3,2.2c-3.2,0.2-6.4-0.5-9.3-1.4c-3-1-5.7-2.4-8.4-3.9
			C740.5,296.4,735.7,292.8,730.5,289.8z"/>
	</g>
	<path class="st26" d="M601.6,577.8c0,0-33.4,43.5-19.5,140"/>
	<path class="st26" d="M957.5,714.7c0,0,24.3-49.2-8-141.1"/>
</g>
</svg>
